<?xml version="1.0" encoding="UTF-8"?>
<svg version="1.1" xmlns="http://www.w3.org/2000/svg" width="1024" height="1024">
<path d="M0 0 C1.20079948 0.0107103 1.20079948 0.0107103 2.42585754 0.02163696 C3.26397476 0.02168732 4.10209198 0.02173767 4.96560669 0.02178955 C7.72333575 0.02542707 10.48070361 0.04440453 13.23835754 0.06460571 C15.13703804 0.07214154 17.03571974 0.07938217 18.93440247 0.08633423 C31.14294829 0.14661808 43.34710375 0.34453289 55.55085754 0.68960571 C56.26846252 0.70907257 56.9860675 0.72853943 57.72541809 0.74859619 C66.43118271 0.99345525 66.43118271 0.99345525 70.23835754 1.25210571 C71.11161682 1.27603394 71.9848761 1.29996216 72.88459778 1.32461548 C76.61555023 2.79478334 77.69848974 5.97530988 79.34773254 9.40835571 C79.71884155 10.14348389 80.08995056 10.87861206 80.4723053 11.63601685 C81.6612778 14.00000253 82.8252849 16.37528713 83.98835754 18.75210571 C84.75490371 20.29070577 85.52311777 21.82847605 86.29304504 23.36538696 C87.44830981 25.67226005 88.6021388 27.97973404 89.74908447 30.29075623 C92.78667697 36.40225734 95.94333733 42.44431732 99.16273499 48.46182251 C101.56956177 52.96275547 103.89882308 57.4966472 106.17585754 62.06460571 C106.53945374 62.79357056 106.90304993 63.5225354 107.27766418 64.27359009 C107.70873474 65.14467407 107.70873474 65.14467407 108.14851379 66.03335571 C108.65342346 67.05235962 108.65342346 67.05235962 109.16853333 68.09194946 C109.69809631 69.16122681 109.69809631 69.16122681 110.23835754 70.25210571 C115.64998302 81.17105699 121.12171527 92.0474075 126.83943176 102.80996704 C129.37787056 107.59028817 131.83532943 112.40215856 134.23835754 117.25210571 C134.89835754 117.25210571 135.55835754 117.25210571 136.23835754 117.25210571 C136.56835754 118.40710571 136.89835754 119.56210571 137.23835754 120.75210571 C139.50143463 127.54133698 142.90648194 133.80365466 146.1665802 140.15249634 C147.51564192 142.79530517 148.83134708 145.45390822 150.14704895 148.11343384 C152.95086779 153.77490937 155.82754842 159.38905565 158.79890442 164.96450806 C162.74855195 172.3785695 166.52675233 179.84306279 170.11335754 187.43960571 C175.38665377 198.60577605 180.89377412 209.64992384 186.42585754 220.68960571 C186.85146973 221.53896698 187.27708191 222.38832825 187.71559143 223.26342773 C188.96627243 225.7585511 190.21744279 228.25342836 191.46882629 230.74819946 C191.87012756 231.54840012 192.27142883 232.34860077 192.68489075 233.17304993 C194.6515242 237.09343243 196.62114301 241.01226332 198.5962677 244.92837524 C199.32724215 246.38132872 200.05820001 247.83429054 200.78913879 249.28726196 C201.12455185 249.9499559 201.4599649 250.61264984 201.80554199 251.29542542 C203.12758908 253.92700551 204.3053737 256.45315418 205.23835754 259.25210571 C205.91252199 260.74827615 206.60638385 262.23562711 207.31257629 263.71694946 C207.73047424 264.59423706 208.14837219 265.47152466 208.57893372 266.37539673 C209.02341858 267.30408569 209.46790344 268.23277466 209.92585754 269.18960571 C210.37485413 270.13440796 210.82385071 271.07921021 211.28645325 272.05264282 C214.17441899 278.10838978 217.16502421 284.08245611 220.37507629 289.97476196 C221.3779778 292.62042522 221.02520946 293.61342954 220.23835754 296.25210571 C219.69363297 296.22246735 219.14890839 296.19282898 218.587677 296.16229248 C201.04249806 295.2424151 183.53042057 295.09479555 165.96711731 295.12173462 C162.12752312 295.12754025 158.2879972 295.12406592 154.44840527 295.11816216 C151.46048458 295.1145598 148.47258035 295.11569175 145.48465919 295.11828995 C144.06647547 295.11895456 142.64829022 295.11814716 141.23010826 295.11581039 C139.26956078 295.11327765 137.30900798 295.11782082 135.34846497 295.12271118 C134.23726791 295.12350677 133.12607086 295.12430237 131.98120117 295.12512207 C129.14602136 295.13176453 129.14602136 295.13176453 126.23835754 296.25210571 C124.38878452 296.01670551 122.53967803 295.77584066 120.69538879 295.50210571 C116.78764645 295.10449759 112.8939603 295.2852792 108.97273254 295.41226196 C106.04680499 295.24088621 104.69162925 294.80557949 102.23835754 293.25210571 C101.08503723 291.44302368 101.08503723 291.44302368 100.16023254 289.24429321 C99.80864075 288.43137817 99.45704895 287.61846313 99.09480286 286.78091431 C98.7296759 285.90515747 98.36454895 285.02940063 97.98835754 284.12710571 C97.18885842 282.28223366 96.38674411 280.43849288 95.58210754 278.59585571 C94.98656067 277.22493774 94.98656067 277.22493774 94.37898254 275.82632446 C92.84894842 272.373268 91.19840577 268.99391838 89.48835754 265.62710571 C89.17616272 265.01093384 88.8639679 264.39476196 88.54231262 263.75991821 C87.85018707 262.39621696 87.15718041 261.03296266 86.4634552 259.67007446 C83.84435899 254.50077815 81.26476479 249.311566 78.67585754 244.12710571 C77.61218478 241.99943689 76.54838448 239.87183182 75.48445129 237.74429321 C72.06908671 230.91356405 68.65372213 224.08283488 65.23835754 217.25210571 C49.39835754 217.25210571 33.55835754 217.25210571 17.23835754 217.25210571 C12.65867775 225.55034411 12.65867775 225.55034411 8.08601379 233.85244751 C4.86734069 239.66516336 1.57219335 245.38634134 -1.94914246 251.02163696 C-4.75267052 255.52169572 -7.24925109 260.04682781 -9.55461121 264.8175354 C-11.76533575 269.27654535 -14.27828563 273.56589741 -16.76164246 277.87710571 C-17.26953308 278.76655884 -17.77742371 279.65601196 -18.30070496 280.57241821 C-19.774066 283.14135542 -21.24952162 285.70574252 -22.76164246 288.25210571 C-23.04049632 288.90534758 -23.31935019 289.55858944 -23.60665417 290.23162651 C-24.77417949 292.63289864 -25.860733 294.3661453 -27.76164246 296.25210571 C-31.57866804 297.43063797 -35.28587547 297.26453799 -39.25309753 297.16030884 C-40.99520508 297.16206116 -40.99520508 297.16206116 -42.77250671 297.16384888 C-46.6099471 297.15827684 -50.4442766 297.09605597 -54.28117371 297.03335571 C-56.9420905 297.01843392 -59.60283517 297.00665338 -62.26376343 296.99905396 C-68.55046673 296.97421072 -74.8360541 296.9085944 -81.12226647 296.82825804 C-88.28049204 296.73876791 -95.43877157 296.69483563 -102.59741747 296.65469456 C-117.31939597 296.57112426 -132.04049976 296.43045533 -146.76164246 296.25210571 C-145.31871971 293.04231048 -143.87530673 289.83273592 -142.43180847 286.62319946 C-141.82214108 285.26696472 -141.82214108 285.26696472 -141.20015717 283.8833313 C-138.39962365 277.6573599 -135.56421196 271.44863752 -132.69914246 265.25210571 C-129.3949152 258.08335878 -126.14746547 250.89174116 -122.96086121 243.67007446 C-122.63007568 242.92061554 -122.29929016 242.17115662 -121.95848083 241.39898682 C-121.62362671 240.64024261 -121.28877258 239.88149841 -120.94377136 239.09976196 C-114.96345957 225.54965599 -108.90204462 212.0715219 -102.36174011 198.78018188 C-98.86204685 191.64847396 -95.57330184 184.43687422 -92.32943726 177.18649292 C-89.58838866 171.06744941 -86.79946123 164.97257912 -83.97257996 158.89273071 C-83.57467758 158.03671265 -83.17677521 157.18069458 -82.76681519 156.29873657 C-81.15051343 152.82426033 -79.53227917 149.35068804 -77.91300964 145.87759399 C-73.53212266 136.47672181 -69.20851317 127.06283713 -65.08824158 117.54458618 C-63.01452704 112.77419507 -60.78978853 108.11381114 -58.38664246 103.50210571 C-55.48688011 98.10043144 -55.48688011 98.10043144 -53.76164246 92.25210571 C-53.10164246 92.25210571 -52.44164246 92.25210571 -51.76164246 92.25210571 C-51.43164246 91.09710571 -51.10164246 89.94210571 -50.76164246 88.75210571 C-49.32551234 84.46959529 -47.46697413 80.49004368 -45.41789246 76.47476196 C-44.69621322 75.04605242 -43.97488296 73.61716657 -43.25382996 72.18814087 C-42.85712097 71.40376648 -42.46041199 70.61939209 -42.05168152 69.81124878 C-39.61436773 64.97617451 -37.20661808 60.12632849 -34.79289246 55.27944946 C-33.16782462 52.02167115 -31.54214145 48.76420037 -29.91642761 45.50674438 C-28.81252229 43.29388489 -27.70933299 41.08066805 -26.6068573 38.86709595 C-7.26151058 0.03006423 -7.26151058 0.03006423 0 0 Z M11.23835754 31.25210571 C10.75367004 32.22148071 10.26898254 33.19085571 9.76960754 34.18960571 C1.20710754 51.31460571 1.20710754 51.31460571 0.2212677 53.28604126 C-0.44077592 54.61029294 -1.10255454 55.93467712 -1.76408386 57.25918579 C-3.40043127 60.53466215 -5.0408118 63.80796337 -6.69132996 67.07632446 C-10.47885334 74.59028214 -14.15857474 82.14783368 -17.76164246 89.75210571 C-21.56890417 97.7829031 -25.46955437 105.75616978 -29.47111511 113.69155884 C-34.63099825 123.92932924 -39.76695383 134.1789686 -44.86552429 144.44741821 C-45.72109537 146.17044816 -46.57776738 147.8929313 -47.43449402 149.61538696 C-48.88868792 152.55119514 -50.32827386 155.49358582 -51.76164246 158.43960571 C-52.40238708 159.72967529 -52.40238708 159.72967529 -53.05607605 161.04580688 C-53.43328796 161.82931519 -53.81049988 162.61282349 -54.19914246 163.42007446 C-54.52785339 164.09320679 -54.85656433 164.76633911 -55.19523621 165.45986938 C-56.01952806 167.45746056 -56.01952806 167.45746056 -54.76164246 170.25210571 C-46.48268169 166.42810536 -39.34252906 159.95640593 -32.17985535 154.40005493 C-26.29532108 149.85467635 -20.29764425 145.46396281 -14.29679871 141.07388306 C-11.09601362 138.72854906 -7.92242086 136.38081395 -4.82414246 133.90054321 C-2.76164246 132.25210571 -2.76164246 132.25210571 -0.76164246 131.25210571 C-0.76164246 130.59210571 -0.76164246 129.93210571 -0.76164246 129.25210571 C-0.03461121 129.00073853 0.69242004 128.74937134 1.44148254 128.49038696 C4.47043817 127.14935493 6.47797847 125.59421451 8.98835754 123.43960571 C13.71310125 119.48223649 18.52375292 115.67504497 23.42585754 111.93960571 C24.14612122 111.39054565 24.86638489 110.8414856 25.60847473 110.27578735 C31.30138131 105.94683259 37.01991012 101.65218763 42.75154114 97.37466431 C47.07493211 94.14384276 51.33949346 90.85020619 55.53913879 87.45913696 C57.23835754 86.25210571 57.23835754 86.25210571 60.23835754 85.25210571 C60.5101886 85.97680054 60.78201965 86.70149536 61.06208801 87.44815063 C62.20769068 90.17900298 63.5244891 92.5856205 65.05867004 95.11538696 C65.59363098 96.00161743 66.12859192 96.8878479 66.67976379 97.80093384 C67.23534973 98.71294556 67.79093567 99.62495728 68.36335754 100.56460571 C69.20833801 101.9616272 69.20833801 101.9616272 70.07038879 103.38687134 C71.45640215 105.67731714 72.84581383 107.96562647 74.23835754 110.25210571 C73.62371643 110.55140991 73.00907532 110.85071411 72.37580872 111.15908813 C58.37632395 118.31793374 45.58252655 130.58074823 33.23835754 140.25210571 C35.12856481 142.59410032 35.12856481 142.59410032 38.30085754 142.37710571 C39.27023254 142.33585571 40.23960754 142.29460571 41.23835754 142.25210571 C60.90502421 142.25210571 80.57169088 142.25210571 100.23835754 142.25210571 C102.07630097 146.02173798 103.90923626 149.79375138 105.73762512 153.56802368 C106.35996044 154.85091214 106.98364519 156.13314692 107.60871887 157.41470337 C108.50837943 159.25983059 109.40311671 161.10727556 110.29695129 162.95523071 C111.10603943 164.62053833 111.10603943 164.62053833 111.93147278 166.31948853 C112.97935161 168.67090278 113.7440732 170.74060688 114.23835754 173.25210571 C112.23835754 173.25210571 110.23835754 173.25210571 108.23835754 173.25210571 C107.18954407 173.25863159 106.14073059 173.26515747 105.06013489 173.2718811 C96.14916184 173.31019134 87.2484106 173.21518726 78.33992004 172.99819946 C77.32194336 172.97367706 76.30396667 172.94915466 75.25514221 172.92388916 C71.04729607 172.82096978 66.83953822 172.71549264 62.63191223 172.60391235 C59.51384662 172.52219459 56.39567689 172.44720468 53.27742004 172.37319946 C52.32646454 172.3461644 51.37550903 172.31912933 50.39573669 172.29127502 C49.51316193 172.27117874 48.63058716 172.25108246 47.7212677 172.2303772 C46.94949188 172.21039169 46.17771606 172.19040619 45.3825531 172.16981506 C41.46614192 172.30812362 41.46614192 172.30812362 38.23835754 174.25210571 C37.73401184 173.92685913 37.22966614 173.60161255 36.71003723 173.26651001 C33.37437105 171.89751623 30.23710501 171.98513505 26.69148254 172.02163696 C25.9614502 172.02209518 25.23141785 172.02255341 24.47926331 172.02302551 C22.93605421 172.02604128 21.39284799 172.0339074 19.84968567 172.04629517 C17.51038069 172.06443494 15.17147523 172.0668054 12.83210754 172.06655884 C11.32689585 172.07147947 9.8216868 172.07731015 8.31648254 172.08413696 C7.62661255 172.08524979 6.93674255 172.08636261 6.22596741 172.08750916 C1.48181916 172.13287395 -3.07256828 172.5953864 -7.76164246 173.25210571 C-7.76164246 174.24210571 -7.76164246 175.23210571 -7.76164246 176.25210571 C-8.75164246 175.92210571 -9.74164246 175.59210571 -10.76164246 175.25210571 C-12.59618075 176.12966421 -12.59618075 176.12966421 -14.42961121 177.57632446 C-15.15027771 178.10467896 -15.87094421 178.63303345 -16.6134491 179.17739868 C-17.38422791 179.758927 -18.15500671 180.34045532 -18.94914246 180.93960571 C-19.74634705 181.52886841 -20.54355164 182.1181311 -21.36491394 182.72525024 C-23.838158 184.55748231 -26.3003235 186.40389687 -28.76164246 188.25210571 C-30.23772107 189.35041259 -31.71426127 190.44809946 -33.19132996 191.54507446 C-39.44571669 196.20219377 -45.66998314 200.89277547 -51.76945496 205.75210571 C-54.35923479 207.70205759 -57.05981838 209.46082284 -59.76164246 211.25210571 C-62.06749178 212.83648883 -64.35376258 214.44735489 -66.63664246 216.06460571 C-67.21027527 216.46485962 -67.78390808 216.86511353 -68.37492371 217.27749634 C-70.19683918 218.56987959 -71.98021233 219.90453548 -73.76164246 221.25210571 C-74.43002136 221.7296228 -75.09840027 222.20713989 -75.78703308 222.6991272 C-82.0890534 227.59215317 -84.59235891 233.39995778 -87.51164246 240.68960571 C-88.42144885 242.87649162 -89.33287299 245.06270528 -90.24601746 247.24819946 C-90.66818542 248.27928833 -91.09035339 249.3103772 -91.52531433 250.37271118 C-92.6283075 252.94157007 -93.8382001 255.38447694 -95.15226746 257.84976196 C-97.18537365 261.13343414 -97.18537365 261.13343414 -95.76164246 264.25210571 C-92.43596183 266.5979506 -89.34999567 266.49699105 -85.37101746 266.48257446 C-84.11079773 266.48168823 -82.850578 266.480802 -81.5521698 266.47988892 C-80.20531727 266.46751345 -78.8584742 266.4540676 -77.51164246 266.43960571 C-76.14526897 266.42940525 -74.77889527 266.41923276 -73.41252136 266.40908813 C-69.52858841 266.37467619 -65.64523569 266.31391634 -61.76164246 266.25210571 C-60.80161316 266.24340454 -59.84158386 266.23470337 -58.85246277 266.22573853 C-56.61181969 266.20024671 -54.37597142 266.14262634 -52.13664246 266.06460571 C-50.96875183 266.02980103 -49.80086121 265.99499634 -48.59757996 265.95913696 C-44.77080337 265.00507834 -43.8690132 263.53870732 -41.76164246 260.25210571 C-40.46461957 258.05844527 -39.22366491 255.86623614 -38.01164246 253.62710571 C-33.85730141 246.09338696 -29.48484085 238.70063341 -25.07414246 231.31460571 C-18.96117947 221.07192191 -13.03971886 210.74279931 -7.27848816 200.29727173 C-6.23372573 198.40866876 -5.17758979 196.52628846 -4.10734558 194.65200806 C-2.77593264 192.34912449 -2.77593264 192.34912449 -1.83781433 190.26235962 C-0.99601746 188.61538696 -0.99601746 188.61538696 1.23835754 186.25210571 C9.37495897 184.30840685 18.36719904 185.10576721 26.69538879 185.11929321 C28.17127498 185.11861809 29.64716106 185.11764633 31.12304688 185.11639404 C34.19656954 185.11492918 37.27006292 185.11703391 40.34358215 185.12173462 C44.27530377 185.12745646 48.20695746 185.12412978 52.13867664 185.11816216 C55.17817699 185.11454516 58.21766126 185.11569994 61.25716209 185.11828995 C62.70718583 185.11895476 64.15721104 185.11814644 65.60723305 185.11581039 C67.63116553 185.11326241 69.65510316 185.11783644 71.67903137 185.12271118 C73.40250542 185.12390457 73.40250542 185.12390457 75.16079712 185.12512207 C77.97885887 185.2413985 80.49031944 185.65857323 83.23835754 186.25210571 C84.22835754 186.25210571 85.21835754 186.25210571 86.23835754 186.25210571 C86.35066711 186.96640747 86.46297668 187.68070923 86.57868958 188.41665649 C87.28741181 191.46295555 88.36868977 193.83757088 89.79304504 196.61929321 C90.32002991 197.65843872 90.84701477 198.69758423 91.38996887 199.76821899 C92.24304626 201.43086792 92.24304626 201.43086792 93.11335754 203.12710571 C94.303846 205.47520982 95.49261609 207.82418584 96.67976379 210.17398071 C97.13010231 211.06411362 97.13010231 211.06411362 97.58953857 211.972229 C100.49691114 217.73294561 103.28600721 223.5469849 106.05085754 229.37710571 C109.51185594 236.66952288 113.02365075 243.92846895 116.69075012 251.11978149 C118.7198739 255.12022875 120.46259964 259.1086706 122.23835754 263.25210571 C138.73835754 263.25210571 155.23835754 263.25210571 172.23835754 263.25210571 C166.51988402 251.17977272 160.76309642 239.15966482 154.77351379 227.22476196 C154.00628155 225.69217182 153.23923137 224.15949052 152.47235107 222.62672424 C150.48745333 218.66068107 148.50015559 214.69584565 146.51228333 210.73129272 C144.47872556 206.6745253 142.44751426 202.61658337 140.41609192 198.55874634 C136.86156107 191.45916513 133.30505052 184.36057892 129.74703979 177.26274109 C128.86076451 175.49414355 127.97539451 173.72509092 127.09216309 171.95497131 C126.18357282 170.14284076 125.2402001 168.35270984 124.28523254 166.56460571 C123.91583557 165.87100952 123.5464386 165.17741333 123.16584778 164.46279907 C122.777276 163.73327026 122.38870422 163.00374146 121.98835754 162.25210571 C118.29632825 155.30350193 114.70841712 148.31469755 111.23835754 141.25210571 C110.57835754 141.25210571 109.91835754 141.25210571 109.23835754 141.25210571 C109.14425598 140.4103479 109.05015442 139.56859009 108.95320129 138.70132446 C108.14240842 134.7891381 106.63567185 131.57161108 104.80085754 128.06460571 C104.44958801 127.3775354 104.09831848 126.69046509 103.73640442 125.98257446 C100.53039451 119.73840857 97.24100095 113.53665875 93.95808411 107.33267212 C89.32873716 98.57036093 84.93031019 89.69789498 80.53913879 80.81460571 C76.84514155 73.37494692 73.1029386 65.95985392 69.11701965 58.67129517 C66.83424619 54.46863765 64.82368791 50.31928601 63.11335754 45.84976196 C59.89477318 37.11394207 59.89477318 37.11394207 53.11824036 31.33755493 C47.82137446 30.23086105 42.58622825 30.59983214 37.22761536 31.0440979 C32.99908185 31.33834084 28.79378969 31.27163381 24.55744934 31.22354126 C20.11725267 31.17542499 15.67849819 31.21247793 11.23835754 31.25210571 Z M-97.76164246 264.25210571 C-96.76164246 266.25210571 -96.76164246 266.25210571 -96.76164246 266.25210571 Z " fill="#E6E2DD" transform="translate(429.7616424560547,335.7478942871094)"/>
<path d="M0 0 C22.20310952 0.97749539 40.4842192 7.44661644 56 24 C58.64136073 27.51854732 60.87684263 31.15031905 63 35 C63.38671875 35.66515625 63.7734375 36.3303125 64.171875 37.015625 C70.22852629 48.10395582 71.68195304 59.6120709 72 72 C71.360625 72.12375 70.72125 72.2475 70.0625 72.375 C69.381875 72.58125 68.70125 72.7875 68 73 C67.67 73.66 67.34 74.32 67 75 C67 74.34 67 73.68 67 73 C66.22809326 73.01571045 65.45618652 73.0314209 64.66088867 73.04760742 C61.16983338 73.10989607 57.67889491 73.14897173 54.1875 73.1875 C52.36508789 73.22520508 52.36508789 73.22520508 50.50585938 73.26367188 C49.34248047 73.27333984 48.17910156 73.28300781 46.98046875 73.29296875 C45.90692139 73.3086792 44.83337402 73.32438965 43.72729492 73.34057617 C41 73 41 73 39.1418457 71.70043945 C37.26644032 68.9075811 37.76721248 66.25902526 38 63 C38.33 62.01 38.66 61.02 39 60 C38.01 59.01 37.02 58.02 36 57 C36.33 56.01 36.66 55.02 37 54 C32.11762231 44.23524462 23.77482683 37.36806001 13.59765625 33.71875 C3.3385533 30.88014106 -7.69934955 31.49168563 -17.09765625 36.7578125 C-25.96450617 42.54766522 -31.61238768 50.12864643 -34.4375 60.4375 C-36.16299795 70.39913764 -34.3073509 80.86395281 -28.47265625 89.17578125 C-27.05008592 90.91138662 -25.69913932 92.5338855 -24 94 C-23.34 94 -22.68 94 -22 94 C-21.75894531 94.61488281 -21.51789063 95.22976563 -21.26953125 95.86328125 C-19.70560115 98.4954959 -18.4895801 99.03370231 -15.6875 100.1875 C-14.92824219 100.51105469 -14.16898437 100.83460938 -13.38671875 101.16796875 C-8.04196618 103.03119673 -3.03701127 103.15726877 2.5625 103.125 C3.35591797 103.1237915 4.14933594 103.12258301 4.96679688 103.12133789 C10.61919742 103.08415104 16.19232337 102.75336362 21.8125 102.12109375 C24 102 24 102 26 103 C26.22647063 107.06170158 26.42799496 111.12427108 26.625 115.1875 C26.68945312 116.33798828 26.75390625 117.48847656 26.8203125 118.67382812 C26.871875 119.78564453 26.9234375 120.89746094 26.9765625 122.04296875 C27.02893066 123.06414795 27.08129883 124.08532715 27.13525391 125.13745117 C26.99179477 128.17365764 26.28684147 130.26601086 25 133 C20.94727542 133.0250883 16.89458214 133.04303967 12.84179688 133.05493164 C11.46874197 133.05989951 10.09569218 133.0666761 8.72265625 133.07543945 C-13.58594309 133.21405283 -30.94081069 130.11055258 -47.6875 114.33203125 C-56.96234918 104.9788472 -64.45605082 92.30001938 -66 79 C-66.13148438 77.94425781 -66.26296875 76.88851562 -66.3984375 75.80078125 C-68.17522325 57.85524513 -63.29152134 41.52218903 -51.93359375 27.4375 C-49.69194872 24.88007541 -47.38254724 22.42637336 -45 20 C-44.31164062 19.28714844 -43.62328125 18.57429688 -42.9140625 17.83984375 C-32.12131841 7.42825605 -17.69681304 2.19127153 -2.8984375 1.2109375 C-0.99084919 1.19908088 -0.99084919 1.19908088 0 0 Z " fill="#E9E5E1" transform="translate(485,193)"/>
<path d="M0 0 C0.85889832 -0.00058411 1.71779663 -0.00116821 2.60272217 -0.00177002 C5.43836038 0.00101411 8.27294413 0.03212139 11.10839844 0.06347656 C13.07565741 0.07093779 15.04292381 0.07663128 17.01019287 0.08062744 C22.18563389 0.09589307 27.36062521 0.13518307 32.53588867 0.17944336 C37.81780921 0.22037591 43.09980248 0.23863416 48.38183594 0.25878906 C58.74401258 0.30167627 69.1058556 0.36993901 79.46777344 0.45410156 C79.79777344 1.11410156 80.12777344 1.77410156 80.46777344 2.45410156 C71.68744771 14.95222287 62.78536386 27.35712961 53.82226562 39.72460938 C47.99314253 47.77039247 42.18469011 55.8280809 36.46777344 63.95410156 C27.3777813 76.86957124 18.09077341 89.63733889 8.70532227 102.33935547 C4.15366596 108.50562599 -0.34696244 114.70721235 -4.82006836 120.93066406 C-7.45133317 124.58815876 -10.09958099 128.23048523 -12.79003906 131.84472656 C-13.30477783 132.53791992 -13.8195166 133.23111328 -14.34985352 133.9453125 C-15.3234971 135.25368085 -16.30101325 136.55917908 -17.28295898 137.86132812 C-19.73631973 140.83671297 -19.73631973 140.83671297 -20.53222656 144.45410156 C-21.85222656 144.45410156 -23.17222656 144.45410156 -24.53222656 144.45410156 C-26.10253906 142.57519531 -26.10253906 142.57519531 -27.65722656 139.89160156 C-29.75328401 136.35077804 -31.86764568 132.93066874 -34.27832031 129.59472656 C-34.74415527 128.93931885 -35.20999023 128.28391113 -35.68994141 127.60864258 C-36.61416619 126.31450301 -37.55302462 125.0306695 -38.50732422 123.75854492 C-40.64519687 120.70928059 -41.61291288 119.07115982 -41.12207031 115.31738281 C-39.30770467 112.04974149 -37.2536278 110.01175087 -34.53222656 107.45410156 C-32.58371662 105.17786897 -30.74656273 102.81896235 -28.90722656 100.45410156 C-28.43027344 99.85082031 -27.95332031 99.24753906 -27.46191406 98.62597656 C-24.89487175 95.34586694 -22.65535141 92.04377797 -20.53222656 88.45410156 C-19.56363854 87.24084417 -18.56496478 86.05074263 -17.53222656 84.89160156 C-17.01402344 84.29734375 -16.49582031 83.70308594 -15.96191406 83.09082031 C-15.49011719 82.55070312 -15.01832031 82.01058594 -14.53222656 81.45410156 C-11.86508894 78.40183116 -11.86508894 78.40183116 -11.53222656 74.45410156 C-10.63491821 74.07523804 -10.63491821 74.07523804 -9.71948242 73.6887207 C-7.24716481 72.29319551 -6.17631766 71.00105198 -4.53613281 68.70019531 C-3.98328613 67.93570068 -3.43043945 67.17120605 -2.86083984 66.38354492 C-2.27802246 65.56120361 -1.69520508 64.7388623 -1.09472656 63.89160156 C0.14457257 62.17170743 1.38549699 60.45298341 2.62792969 58.73535156 C3.25973145 57.86007812 3.8915332 56.98480469 4.54248047 56.08300781 C8.10890215 51.21320961 11.82662346 46.45784578 15.55541992 41.71166992 C16.32801147 40.71598999 16.32801147 40.71598999 17.11621094 39.70019531 C17.79949463 38.82899048 17.79949463 38.82899048 18.49658203 37.94018555 C19.6501269 36.47095236 19.6501269 36.47095236 19.46777344 34.45410156 C19.15298898 33.11626763 18.82189688 31.78206447 18.46777344 30.45410156 C18.46777344 30.78410156 18.46777344 31.11410156 18.46777344 31.45410156 C16.15777344 31.45410156 13.84777344 31.45410156 11.46777344 31.45410156 C11.46777344 30.79410156 11.46777344 30.13410156 11.46777344 29.45410156 C3.21240023 30.9703946 -0.53353309 36.13884798 -5.84082031 42.25097656 C-15.08315644 52.82304011 -24.86537332 62.90883564 -34.73776245 72.89080811 C-35.72232055 73.88787567 -36.70437977 74.88741724 -37.68386841 75.88946533 C-39.06713362 77.30259874 -40.46159072 78.70475015 -41.85644531 80.10644531 C-42.66170654 80.92105225 -43.46696777 81.73565918 -44.29663086 82.57495117 C-46.48582733 84.41510026 -47.7380191 85.0806085 -50.53222656 85.45410156 C-54.52067341 79.93259545 -58.36438301 74.31826513 -62.03222656 68.57910156 C-62.72316406 67.50917969 -63.41410156 66.43925781 -64.12597656 65.33691406 C-65.53222656 62.45410156 -65.53222656 62.45410156 -65.31591797 60.48583984 C-64.38337128 58.06819075 -63.26348089 56.8564275 -61.39941406 55.06347656 C-60.44276855 54.12906738 -60.44276855 54.12906738 -59.46679688 53.17578125 C-58.78713867 52.52512695 -58.10748047 51.87447266 -57.40722656 51.20410156 C-56.02258942 49.85180065 -54.63974984 48.49765654 -53.25878906 47.14160156 C-52.60297852 46.49835938 -51.94716797 45.85511719 -51.27148438 45.19238281 C-48.79082229 42.71311357 -46.5259431 40.08582736 -44.26660156 37.40722656 C-41.51501731 34.30859565 -38.53565015 31.43720861 -35.58691406 28.52832031 C-32.27430649 25.24316529 -29.17896196 21.83808149 -26.14941406 18.29394531 C-23.42737285 15.19713031 -20.47785337 12.33615369 -17.53222656 9.45410156 C-16.64535156 8.56722656 -15.75847656 7.68035156 -14.84472656 6.76660156 C-14.08160156 6.00347656 -13.31847656 5.24035156 -12.53222656 4.45410156 C-12.00050842 3.75577209 -11.46879028 3.05744263 -10.92095947 2.33795166 C-7.4762221 -0.3787057 -4.2008964 -0.07472447 0 0 Z M23.46777344 29.45410156 C24.46777344 31.45410156 24.46777344 31.45410156 24.46777344 31.45410156 Z " fill="#E7E3DE" transform="translate(588.5322265625,279.5458984375)"/>
<path d="M0 0 C0.66 0.33 1.32 0.66 2 1 C2 1.66 2 2.32 2 3 C5.62885324 3.15149298 5.62885324 3.15149298 9 2 C9 2.66 9 3.32 9 4 C37.71 3.505 37.71 3.505 67 3 C69.64 8.28 72.28 13.56 75 19 C77.47609924 23.77775599 77.47609924 23.77775599 79.96875 28.546875 C81 31 81 31 81 35 C80.01 35.66 79.02 36.32 78 37 C76.65640822 36.71077688 75.3246348 36.3663762 74 36 C71.58270048 35.94238935 69.16388537 35.94200256 66.74609375 35.97265625 C59.60818006 36.02749442 52.48337631 35.92749264 45.34765625 35.74609375 C44.3460849 35.72149078 43.34451355 35.69688782 42.31259155 35.67153931 C38.16507585 35.56877259 34.01765637 35.46314129 29.87036133 35.35180664 C26.80038896 35.27031549 23.73031391 35.19522374 20.66015625 35.12109375 C19.7176149 35.09405869 18.77507355 35.06702362 17.80397034 35.03916931 C16.93803757 35.01907303 16.0721048 34.99897675 15.17993164 34.97827148 C14.03772911 34.94829323 14.03772911 34.94829323 12.87245178 34.91770935 C10.90707945 34.87666366 10.90707945 34.87666366 9 36 C7.515 35.505 7.515 35.505 6 35 C6 35.66 6 36.32 6 37 C5.34 36.67 4.68 36.34 4 36 C3.01 36 2.02 36 1 36 C1 35.34 1 34.68 1 34 C0.02800659 34.24447876 0.02800659 34.24447876 -0.96362305 34.49389648 C-4.84602843 35.14101608 -8.65957296 35.12349457 -12.58203125 35.09765625 C-13.80329964 35.09553383 -13.80329964 35.09553383 -15.04924011 35.09336853 C-17.63703156 35.08779317 -20.22473492 35.07524524 -22.8125 35.0625 C-24.57226437 35.05748181 -26.33203011 35.05291946 -28.09179688 35.04882812 C-32.39456494 35.03783181 -36.69726756 35.02058421 -41 35 C-41 35.99 -41 36.98 -41 38 C-41.5887793 38.11786865 -42.17755859 38.2357373 -42.78417969 38.35717773 C-45.10023377 39.0290784 -46.51682361 39.86878764 -48.453125 41.28515625 C-49.071875 41.73310547 -49.690625 42.18105469 -50.328125 42.64257812 C-51.27945312 43.34543945 -51.27945312 43.34543945 -52.25 44.0625 C-52.8996875 44.53494141 -53.549375 45.00738281 -54.21875 45.49414062 C-55.81653662 46.65723529 -57.40881803 47.82788601 -59 49 C-59.66 48.67 -60.32 48.34 -61 48 C-58.98036936 46.43592514 -56.95933562 44.87372027 -54.9375 43.3125 C-54.37611328 42.87744141 -53.81472656 42.44238281 -53.23632812 41.99414062 C-52.67236328 41.55908203 -52.10839844 41.12402344 -51.52734375 40.67578125 C-51.01937256 40.28302002 -50.51140137 39.89025879 -49.98803711 39.4855957 C-49.33198486 38.99534912 -48.67593262 38.50510254 -48 38 C-46.57137634 36.73694031 -46.57137634 36.73694031 -45.1138916 35.44836426 C-40.14311874 31.93293918 -35.09001543 32.29417904 -29.18969727 32.34057617 C-28.01824661 32.33009247 -26.84679596 32.31960876 -25.6398468 32.30880737 C-21.78176279 32.28008946 -17.92457787 32.28634571 -14.06640625 32.29296875 C-11.38594296 32.27985175 -8.70556114 32.26479104 -6.02513123 32.24714661 C0.29996587 32.20976309 6.624848 32.19756202 12.95004469 32.1945222 C20.1545262 32.18982515 27.35879319 32.15688123 34.56317985 32.12162435 C49.37540898 32.04976588 64.18759958 32.01318525 79 32 C78.63648438 31.28344238 78.27296875 30.56688477 77.8984375 29.82861328 C76.26148331 26.59615342 74.63067121 23.36063364 73 20.125 C72.42765625 18.99707031 71.8553125 17.86914062 71.265625 16.70703125 C70.45351563 15.09248047 70.45351563 15.09248047 69.625 13.4453125 C69.12226562 12.45031738 68.61953125 11.45532227 68.1015625 10.43017578 C67 8 67 8 67 6 C43.24 6 19.48 6 -5 6 C-3 2 -3 2 0 0 Z " fill="#BBB7B3" transform="translate(463,474)"/>
<path d="M0 0 C0.99 0.33 1.98 0.66 3 1 C4.10107422 3.36572266 4.10107422 3.36572266 5.1796875 6.5390625 C7.92397112 14.05868655 11.38179245 21.07834002 15.01663208 28.2019043 C16.91138511 31.91680762 18.78434134 35.64269616 20.66015625 39.3671875 C21.03158249 40.10342346 21.40300873 40.83965942 21.78569031 41.59820557 C25.11224968 48.19998752 28.36454697 54.83480401 31.5625 61.5 C32.02092285 62.44794434 32.4793457 63.39588867 32.95166016 64.37255859 C33.56533447 65.65767334 33.56533447 65.65767334 34.19140625 66.96875 C34.54404541 67.70544922 34.89668457 68.44214844 35.26000977 69.20117188 C36 71 36 71 36 73 C73.95 73 111.9 73 151 73 C149.35 69.7 147.7 66.4 146 63 C146.33 62.01 146.66 61.02 147 60 C148.03544174 61.90881434 149.05290085 63.82739204 150.0625 65.75 C150.63097656 66.81734375 151.19945312 67.8846875 151.78515625 68.984375 C153.0787723 72.19553766 152.99355203 72.87488087 152 76 C151.45527542 75.97036163 150.91055084 75.94072327 150.34931946 75.91018677 C132.80414052 74.99030939 115.29206303 74.84268984 97.72875977 74.86962891 C93.88916557 74.87543454 90.04963965 74.87196021 86.21004772 74.86605644 C83.22212704 74.86245409 80.23422281 74.86358604 77.24630165 74.86618423 C75.82811792 74.86684884 74.40993268 74.86604145 72.99175072 74.86370468 C71.03120324 74.86117194 69.07065044 74.86571511 67.11010742 74.87060547 C65.99891037 74.87140106 64.88771332 74.87219666 63.74284363 74.87301636 C60.90766381 74.87965882 60.90766381 74.87965882 58 76 C56.15042698 75.7645998 54.30132049 75.52373495 52.45703125 75.25 C48.5492889 74.85239188 44.65560276 75.03317349 40.734375 75.16015625 C37.80844745 74.98878049 36.45327171 74.55347377 34 73 C32.84667969 71.19091797 32.84667969 71.19091797 31.921875 68.9921875 C31.5702832 68.17927246 31.21869141 67.36635742 30.85644531 66.52880859 C30.49131836 65.65305176 30.12619141 64.77729492 29.75 63.875 C28.95050088 62.03012795 28.14838657 60.18638717 27.34375 58.34375 C26.94671875 57.42980469 26.5496875 56.51585937 26.140625 55.57421875 C24.61059152 52.12116374 22.9600651 48.74180365 21.25 45.375 C20.93998047 44.76317871 20.62996094 44.15135742 20.31054688 43.52099609 C19.62060244 42.16169754 18.92979123 40.80283872 18.23828125 39.44433594 C15.55188513 34.14145779 12.90579521 28.8182484 10.25 23.5 C9.15116922 21.30201956 8.05221631 19.10410017 6.953125 16.90625 C6.44716797 15.89046875 5.94121094 14.8746875 5.41992188 13.828125 C4.53284554 12.06129345 3.63487031 10.29984292 2.72070312 8.546875 C0 3.30629394 0 3.30629394 0 0 Z " fill="#918E8A" transform="translate(498,556)"/>
<path d="M0 0 C0.85889832 -0.00058411 1.71779663 -0.00116821 2.60272217 -0.00177002 C5.43836038 0.00101411 8.27294413 0.03212139 11.10839844 0.06347656 C13.07565741 0.07093779 15.04292381 0.07663128 17.01019287 0.08062744 C22.18563389 0.09589307 27.36062521 0.13518307 32.53588867 0.17944336 C37.81780921 0.22037591 43.09980248 0.23863416 48.38183594 0.25878906 C58.74401258 0.30167627 69.1058556 0.36993901 79.46777344 0.45410156 C79.79777344 1.11410156 80.12777344 1.77410156 80.46777344 2.45410156 C79.47777344 3.44410156 78.48777344 4.43410156 77.46777344 5.45410156 C77.46777344 4.79410156 77.46777344 4.13410156 77.46777344 3.45410156 C66.58459269 3.01054587 55.70361505 2.67466729 44.81318188 2.4696703 C39.75359966 2.37118306 34.70026918 2.23809498 29.64428711 2.02075195 C4.17049494 -0.12753311 4.17049494 -0.12753311 -18.00114441 9.94523621 C-20.92142283 13.1479373 -23.49825047 16.43271222 -25.89559937 20.04232788 C-29.75296869 25.72664123 -34.62322293 30.67428223 -39.53222656 35.45410156 C-42.44276457 38.32967816 -45.25646678 41.2128425 -47.90722656 44.32910156 C-52.77196362 50.02611894 -58.19970659 55.2003873 -63.53222656 60.45410156 C-60.22961076 67.60976913 -55.98781961 73.96537383 -51.53222656 80.45410156 C-52.02722656 81.44410156 -52.02722656 81.44410156 -52.53222656 82.45410156 C-65.84766174 64.77728315 -65.84766174 64.77728315 -65.27270508 60.54272461 C-64.38941277 58.05127531 -63.29904563 56.89063541 -61.39941406 55.06347656 C-60.44276855 54.12906738 -60.44276855 54.12906738 -59.46679688 53.17578125 C-58.78713867 52.52512695 -58.10748047 51.87447266 -57.40722656 51.20410156 C-56.02258942 49.85180065 -54.63974984 48.49765654 -53.25878906 47.14160156 C-52.60297852 46.49835938 -51.94716797 45.85511719 -51.27148438 45.19238281 C-48.79082229 42.71311357 -46.5259431 40.08582736 -44.26660156 37.40722656 C-41.51501731 34.30859565 -38.53565015 31.43720861 -35.58691406 28.52832031 C-32.27430649 25.24316529 -29.17896196 21.83808149 -26.14941406 18.29394531 C-23.42737285 15.19713031 -20.47785337 12.33615369 -17.53222656 9.45410156 C-16.64535156 8.56722656 -15.75847656 7.68035156 -14.84472656 6.76660156 C-14.08160156 6.00347656 -13.31847656 5.24035156 -12.53222656 4.45410156 C-12.00050842 3.75577209 -11.46879028 3.05744263 -10.92095947 2.33795166 C-7.4762221 -0.3787057 -4.2008964 -0.07472447 0 0 Z " fill="#AAA7A2" transform="translate(588.5322265625,279.5458984375)"/>
<path d="M0 0 C4.06844943 4.54634198 6.53960309 9.66334916 9.22753906 15.08276367 C9.73530884 16.09465256 10.24307861 17.10654144 10.76623535 18.14909363 C12.43862747 21.4857886 14.10231376 24.82673895 15.765625 28.16796875 C16.92535204 30.48794145 18.08549369 32.80770694 19.24603271 35.12727356 C21.67399133 39.98328044 24.09794073 44.84125626 26.51855469 49.70092773 C29.31872002 55.32247106 32.12597258 60.94042988 34.93711686 66.55649012 C37.64260861 71.96178584 40.34352414 77.36935148 43.04228973 82.77800941 C44.19112888 85.07954674 45.34105682 87.3805409 46.49207306 89.68099022 C48.09535204 92.88717918 49.69342968 96.09590562 51.29003906 99.30541992 C51.76999329 100.26285095 52.24994751 101.22028198 52.7444458 102.20672607 C53.17620117 103.07732162 53.60795654 103.94791718 54.05279541 104.84489441 C54.43106602 105.60348849 54.80933662 106.36208258 55.19906998 107.14366436 C56 109 56 109 56 111 C38.84 111 21.68 111 4 111 C2.02 107.37 0.04 103.74 -2 100 C-1.67 99.01 -1.34 98.02 -1 97 C-0.16180842 98.62249941 0.6704116 100.24808497 1.5 101.875 C1.9640625 102.77992188 2.428125 103.68484375 2.90625 104.6171875 C4 107 4 107 4 109 C19.84 108.67 35.68 108.34 52 108 C50.32834531 102.93598403 50.32834531 102.93598403 48.21643066 98.17889404 C47.87159134 97.48357574 47.52675201 96.78825745 47.17146301 96.0718689 C46.79841537 95.32982208 46.42536774 94.58777527 46.04101562 93.82324219 C45.64403976 93.02578583 45.2470639 92.22832947 44.83805847 91.40670776 C43.53145969 88.78474351 42.21906439 86.16573195 40.90625 83.546875 C39.99443551 81.72189835 39.08285853 79.89680301 38.17150879 78.07159424 C36.26423635 74.25410531 34.3540862 70.438074 32.44189453 66.62304688 C29.98835203 61.72738176 27.54203721 56.82814652 25.09784698 51.92780685 C23.21859697 48.16209096 21.33555138 44.39828329 19.45133972 40.63504791 C18.54748503 38.82867443 17.64482234 37.021704 16.74336243 35.21413422 C15.48575838 32.69386272 14.22307557 30.17620225 12.95898438 27.65917969 C12.58593674 26.90903595 12.2128891 26.15889221 11.82853699 25.38601685 C9.82458739 21.40956831 9.82458739 21.40956831 7 18 C6.5978125 16.7315625 6.5978125 16.7315625 6.1875 15.4375 C4.87815424 11.64728858 3.07365956 8.48164418 1.0234375 5.05078125 C0 3 0 3 0 0 Z " fill="#ACA8A5" transform="translate(548,490)"/>
<path d="M0 0 C0.71259476 -0.00014603 1.42518951 -0.00029205 2.15937805 -0.0004425 C4.50765051 0.00025248 6.85584301 0.00802545 9.20410156 0.01586914 C10.83506222 0.01773479 12.46602344 0.019158 14.09698486 0.02015686 C18.38447626 0.02397045 22.67193364 0.03379085 26.95941162 0.04486084 C31.33654317 0.05509986 35.71368023 0.05965982 40.09082031 0.06469727 C48.67547132 0.07541416 57.26009471 0.09247667 65.84472656 0.11352539 C65.84472656 1.10352539 65.84472656 2.09352539 65.84472656 3.11352539 C64.44103569 3.05570641 64.44103569 3.05570641 63.00898743 2.99671936 C54.13994149 2.646745 45.27500787 2.4209599 36.39962482 2.31299686 C31.83646259 2.25359321 27.28267553 2.15235919 22.72338867 1.95117188 C3.3614444 0.21352677 3.3614444 0.21352677 -14.09527588 6.45062256 C-18.61781382 12.00105813 -21.30989328 18.0933545 -23.35871887 24.91941833 C-24.15527344 27.11352539 -24.15527344 27.11352539 -26.15527344 28.11352539 C-24.76874659 23.44199648 -22.79473015 19.36278155 -20.34277344 15.17602539 C-19.98602539 14.56283447 -19.62927734 13.94964355 -19.26171875 13.31787109 C-12.37212318 1.58841257 -12.37212318 1.58841257 -9.46185303 0.45265198 C-6.28987335 -0.0137107 -3.20659206 -0.00552861 0 0 Z " fill="#BEBAB6" transform="translate(442.1552734375,519.886474609375)"/>
<path d="M0 0 C2.68574043 2.42765126 4.34509176 5.08472698 6.1875 8.1875 C14.90629496 21.96355856 28.31695686 30.61515582 44.1159668 34.5234375 C47.93187687 35.1539849 51.72418 35.23411858 55.58203125 35.31640625 C56.39621017 35.33718735 57.2103891 35.35796844 58.04924011 35.37937927 C60.63691179 35.44449463 63.22468053 35.50358208 65.8125 35.5625 C67.57227545 35.60572142 69.33204128 35.64933685 71.09179688 35.69335938 C75.39443344 35.80087457 79.69714903 35.9002299 84 36 C84 26.76 84 17.52 84 8 C84.66 8 85.32 8 86 8 C86.22647063 12.06170158 86.42799496 16.12427108 86.625 20.1875 C86.68945312 21.33798828 86.75390625 22.48847656 86.8203125 23.67382812 C86.871875 24.78564453 86.9234375 25.89746094 86.9765625 27.04296875 C87.02893066 28.06414795 87.08129883 29.08532715 87.13525391 30.13745117 C86.99179477 33.17365764 86.28684147 35.26601086 85 38 C80.94727542 38.0250883 76.89458214 38.04303967 72.84179688 38.05493164 C71.46874197 38.05989951 70.09569218 38.0666761 68.72265625 38.07543945 C46.38011044 38.21426375 29.14740905 35.07576411 12.328125 19.3671875 C0 6.83221477 0 6.83221477 0 0 Z " fill="#B1ACA7" transform="translate(425,288)"/>
<path d="M0 0 C0.66 0.33 1.32 0.66 2 1 C2 1.66 2 2.32 2 3 C5.62885324 3.15149298 5.62885324 3.15149298 9 2 C9 2.66 9 3.32 9 4 C37.71 3.505 37.71 3.505 67 3 C69.64 8.28 72.28 13.56 75 19 C77.13016449 23.04762948 77.13016449 23.04762948 79.28515625 27.08203125 C80 29 80 29 79 32 C76.99354751 28.04490505 74.99593864 24.08540979 73 20.125 C72.42765625 18.99707031 71.8553125 17.86914062 71.265625 16.70703125 C70.72421875 15.63066406 70.1828125 14.55429687 69.625 13.4453125 C69.12226562 12.45031738 68.61953125 11.45532227 68.1015625 10.43017578 C67 8 67 8 67 6 C43.24 6 19.48 6 -5 6 C-3 2 -3 2 0 0 Z " fill="#B2B0AC" transform="translate(463,474)"/>
<path d="M0 0 C1.31923121 3.95769364 0.31893566 5.05667119 -1.45703125 8.76953125 C-1.99263672 9.90583984 -2.52824219 11.04214844 -3.08007812 12.21289062 C-3.65177734 13.40076172 -4.22347656 14.58863281 -4.8125 15.8125 C-5.92600914 18.15099733 -7.036781 20.49080043 -8.14453125 22.83203125 C-8.64315674 23.87077393 -9.14178223 24.9095166 -9.65551758 25.97973633 C-10.97480876 28.94341006 -12.0280948 31.90694421 -13 35 C-12.34 35.33 -11.68 35.66 -11 36 C-11 36.66 -11 37.32 -11 38 C-9.69168213 37.75443359 -9.69168213 37.75443359 -8.35693359 37.50390625 C-5.2544833 37.03820026 -2.41967205 36.89950845 0.7109375 36.9375 C1.78384033 36.94652344 2.85674316 36.95554687 3.9621582 36.96484375 C5.088396 36.97644531 6.21463379 36.98804688 7.375 37 C10.85304781 37.00387661 14.33103556 37.00005451 17.80908203 36.99609375 C19.77103783 36.99849553 21.73303388 37.00956304 23.69482422 37.03515625 C31.83067769 37.48069796 31.83067769 37.48069796 38.93359375 34.36328125 C40.26568329 32.28806758 41.12449068 30.29978285 42 28 C42.73909316 26.81297159 43.50750647 25.6433637 44.3125 24.5 C44.869375 23.675 45.42625 22.85 46 22 C46.495 22.99 46.495 22.99 47 24 C44.36 28.95 41.72 33.9 39 39 C20.52 39 2.04 39 -17 39 C-15.97324402 34.89297608 -14.41587954 31.284458 -12.65625 27.4609375 C-12.32709595 26.73887115 -11.99794189 26.01680481 -11.65881348 25.27285767 C-10.60904999 22.97210633 -9.55454909 20.67356117 -8.5 18.375 C-7.79006123 16.820451 -7.08042241 15.26576498 -6.37109375 13.7109375 C-1.26514732 2.53029464 -1.26514732 2.53029464 0 0 Z M-15 36 C-14 38 -14 38 -14 38 Z " fill="#A5A19E" transform="translate(347,564)"/>
<path d="M0 0 C0.495 0.99 0.495 0.99 1 2 C2.65 2 4.3 2 6 2 C7.70385928 5.09545572 9.38517398 8.20259834 11.0625 11.3125 C11.54783203 12.19357422 12.03316406 13.07464844 12.53320312 13.98242188 C12.98759766 14.82998047 13.44199219 15.67753906 13.91015625 16.55078125 C14.33433838 17.33106689 14.75852051 18.11135254 15.19555664 18.9152832 C16 21 16 21 15 24 C13.49352402 21.04492094 11.99593635 18.08542659 10.5 15.125 C9.85611328 13.86236328 9.85611328 13.86236328 9.19921875 12.57421875 C8.79316406 11.76855469 8.38710938 10.96289062 7.96875 10.1328125 C7.59169922 9.38918457 7.21464844 8.64555664 6.82617188 7.87939453 C6 6 6 6 6 4 C4.08598389 4.00785522 4.08598389 4.00785522 2.13330078 4.01586914 C-23.93191142 4.11333768 -49.95213924 4.01345154 -76 3 C-76.33 3.66 -76.66 4.32 -77 5 C-77 4.01 -77 3.02 -77 2 C-51.59 2 -26.18 2 0 2 C0 1.34 0 0.68 0 0 Z " fill="#F3EFEA" transform="translate(508,521)"/>
<path d="M0 0 C1.88861277 0.00079187 3.7773399 0.02905746 5.6652832 0.0793457 C7.15714897 0.08995781 7.15714897 0.08995781 8.67915344 0.1007843 C11.85888579 0.12879537 15.03686351 0.19154773 18.21606445 0.25512695 C20.37033592 0.28020107 22.52463495 0.30301578 24.67895508 0.32348633 C29.96275786 0.37864356 35.24553583 0.46233597 40.52856445 0.56762695 C51.30763138 19.68774362 51.30763138 19.68774362 54.65356445 25.88012695 C55.0505957 26.59362305 55.44762695 27.30711914 55.85668945 28.04223633 C56.82611268 29.84380432 57.68788566 31.70250289 58.52856445 33.56762695 C58.19856445 34.55762695 57.86856445 35.54762695 57.52856445 36.56762695 C56.96927246 35.4866272 56.96927246 35.4866272 56.39868164 34.38378906 C54.69349548 31.09011244 52.98604985 27.79761217 51.27856445 24.50512695 C50.3987793 22.80453125 50.3987793 22.80453125 49.5012207 21.06958008 C45.92429321 14.16082172 45.92429321 14.16082172 42.10668945 7.3840332 C40.52856445 4.56762695 40.52856445 4.56762695 40.52856445 2.56762695 C40.02067383 2.74165039 39.5127832 2.91567383 38.98950195 3.0949707 C35.66182432 3.73409609 32.50336335 3.39915731 29.15356445 3.13012695 C22.01206977 2.66690771 14.87064601 2.30464337 7.71606445 2.13012695 C6.76747559 2.08380127 5.81888672 2.03747559 4.84155273 1.98974609 C0.03853534 1.75209032 0.03853534 1.75209032 -3.99243164 3.93432617 C-5.2731256 5.74431194 -5.2731256 5.74431194 -6.47143555 8.56762695 C-7.47143555 5.56762695 -7.47143555 5.56762695 -6.66748047 2.91064453 C-4.11780394 0.19032817 -3.57284226 0.19290192 0 0 Z " fill="#AFACA7" transform="translate(444.471435546875,365.432373046875)"/>
<path d="M0 0 C1 3 1 3 -0.28833008 6.12841797 C-0.93861731 7.42147686 -1.59986373 8.70905844 -2.26953125 9.9921875 C-2.62170715 10.68673035 -2.97388306 11.38127319 -3.33673096 12.09686279 C-4.48661107 14.36079748 -5.64965553 16.61770141 -6.8125 18.875 C-7.99214668 21.19152487 -9.16805085 23.50992088 -10.3434906 25.82858276 C-11.12480967 27.36973939 -11.90716856 28.9103693 -12.69056702 30.45046997 C-15.91399561 36.79615576 -19.02477351 43.18803627 -22.0625 49.625 C-22.47282471 50.49366699 -22.88314941 51.36233398 -23.3059082 52.25732422 C-24.20693594 54.17014055 -25.10404068 56.0848044 -26 58 C-25.34 58.66 -24.68 59.32 -24 60 C-21.03 57.69 -18.06 55.38 -15 53 C-14.34 53.33 -13.68 53.66 -13 54 C-13.65226562 54.51949219 -14.30453125 55.03898437 -14.9765625 55.57421875 C-15.85054688 56.27160156 -16.72453125 56.96898437 -17.625 57.6875 C-18.53507812 58.41324219 -19.44515625 59.13898438 -20.3828125 59.88671875 C-22.45430933 61.55937514 -24.4850284 63.26070859 -26.5 65 C-29 67 -29 67 -31 67 C-30.43874335 61.93150381 -28.71673063 57.83218573 -26.46484375 53.3203125 C-26.10789932 52.58988739 -25.7509549 51.85946228 -25.38319397 51.10690308 C-24.24187543 48.77596245 -23.08985214 46.45050225 -21.9375 44.125 C-21.19005555 42.60190565 -20.44330488 41.07847063 -19.69726562 39.5546875 C-14.85253354 29.67609085 -9.93052363 19.83598034 -5 10 C-3.99976358 8.00011823 -2.99971017 6.00014489 -2 4 C-1.33333333 2.66666667 -0.66666667 1.33333333 0 0 Z " fill="#B2AEAA" transform="translate(401,445)"/>
<path d="M0 0 C3.28269067 0.11434496 6.5662716 0.1573695 9.85046387 0.20843506 C17.52988467 0.34728486 25.20252743 0.59851968 32.87780762 0.88226318 C34.16022339 0.92852844 35.44263916 0.9747937 36.76391602 1.02246094 C44.13599792 1.29047911 51.50723065 1.57565487 58.87780762 1.88226318 C58.21780762 3.20226318 57.55780762 4.52226318 56.87780762 5.88226318 C56.38280762 4.89226318 56.38280762 4.89226318 55.87780762 3.88226318 C45.76854367 3.56201015 35.65981674 3.30171739 25.54748535 3.09927368 C19.72333999 2.97366338 13.90943732 2.76154867 8.09046936 2.48742676 C4.24427896 2.31801709 0.39757251 2.20426008 -3.45089722 2.10076904 C-5.29691545 2.03903968 -7.14232037 1.95404362 -8.9861145 1.84442139 C-20.3375111 1.04702742 -20.3375111 1.04702742 -30.24621582 5.83831787 C-33.54629082 8.93528154 -36.38063328 12.28697022 -39.12219238 15.88226318 C-39.12219238 11.14831323 -36.48623034 8.39949252 -33.39419556 5.08668518 C-24.50119377 -2.78212898 -11.07579232 -0.42940636 0 0 Z " fill="#FAF7F3" transform="translate(607.1221923828125,281.11773681640625)"/>
<path d="M0 0 C0.99 0.33 1.98 0.66 3 1 C4.10107422 3.36572266 4.10107422 3.36572266 5.1796875 6.5390625 C7.92397112 14.05868655 11.38179245 21.07834002 15.01663208 28.2019043 C16.91138511 31.91680762 18.78434134 35.64269616 20.66015625 39.3671875 C21.03158249 40.10342346 21.40300873 40.83965942 21.78569031 41.59820557 C25.11224968 48.19998752 28.36454697 54.83480401 31.5625 61.5 C32.02092285 62.44794434 32.4793457 63.39588867 32.95166016 64.37255859 C33.56533447 65.65767334 33.56533447 65.65767334 34.19140625 66.96875 C34.54404541 67.70544922 34.89668457 68.44214844 35.26000977 69.20117188 C36 71 36 71 36 73 C40.62 73 45.24 73 50 73 C50 73.66 50 74.32 50 75 C48.08364783 75.05423638 46.16685075 75.09289963 44.25 75.125 C43.18265625 75.14820313 42.1153125 75.17140625 41.015625 75.1953125 C37.93851502 74.99601781 36.55997953 74.63282396 34 73 C32.84667969 71.19091797 32.84667969 71.19091797 31.921875 68.9921875 C31.5702832 68.17927246 31.21869141 67.36635742 30.85644531 66.52880859 C30.49131836 65.65305176 30.12619141 64.77729492 29.75 63.875 C28.95050088 62.03012795 28.14838657 60.18638717 27.34375 58.34375 C26.94671875 57.42980469 26.5496875 56.51585937 26.140625 55.57421875 C24.61059152 52.12116374 22.9600651 48.74180365 21.25 45.375 C20.93998047 44.76317871 20.62996094 44.15135742 20.31054688 43.52099609 C19.62060244 42.16169754 18.92979123 40.80283872 18.23828125 39.44433594 C15.55188513 34.14145779 12.90579521 28.8182484 10.25 23.5 C9.15116922 21.30201956 8.05221631 19.10410017 6.953125 16.90625 C6.44716797 15.89046875 5.94121094 14.8746875 5.41992188 13.828125 C4.53284554 12.06129345 3.63487031 10.29984292 2.72070312 8.546875 C0 3.30629394 0 3.30629394 0 0 Z " fill="#A5A29E" transform="translate(498,556)"/>
<path d="M0 0 C3.08351974 2.03724324 4.61249475 3.26249212 6.6875 6.375 C4.18018478 5.14367217 1.71680454 3.85486626 -0.74609375 2.53515625 C-18.14333983 -6.67694994 -38.30251169 -10.52443121 -57.6328125 -4.61328125 C-67.5114746 -1.13929953 -67.5114746 -1.13929953 -76.3125 4.375 C-76.9725 4.045 -77.6325 3.715 -78.3125 3.375 C-68.59639207 -3.66565792 -59.35842941 -6.85680558 -47.6328125 -9.01171875 C-44.52135101 -9.53456213 -44.52135101 -9.53456213 -42.35620117 -10.17358398 C-29.00751416 -13.12206353 -11.07317543 -6.79327105 0 0 Z " fill="#B2AEAA" transform="translate(525.3125,203.625)"/>
<path d="M0 0 C0 3.54266871 -0.46517619 3.8633005 -2.81640625 6.328125 C-3.41646484 6.96363281 -4.01652344 7.59914063 -4.63476562 8.25390625 C-5.27091797 8.91261719 -5.90707031 9.57132812 -6.5625 10.25 C-7.17158203 10.89324219 -7.78066406 11.53648437 -8.40820312 12.19921875 C-12.01430202 15.99230055 -15.68890225 19.70999646 -19.41894531 23.38110352 C-21.08777899 25.08987994 -22.64199257 26.86694463 -24.1875 28.6875 C-29.13068597 34.43565433 -34.60319165 39.68294744 -40 45 C-36.6973842 52.15566756 -32.45559305 58.51127226 -28 65 C-28.495 65.99 -28.495 65.99 -29 67 C-42.31543518 49.32318158 -42.31543518 49.32318158 -41.74047852 45.08862305 C-40.8571862 42.59717375 -39.76681907 41.43653385 -37.8671875 39.609375 C-36.91054199 38.67496582 -36.91054199 38.67496582 -35.93457031 37.72167969 C-35.25491211 37.07102539 -34.57525391 36.42037109 -33.875 35.75 C-32.49036286 34.39769909 -31.10752327 33.04355498 -29.7265625 31.6875 C-29.07075195 31.04425781 -28.41494141 30.40101563 -27.73925781 29.73828125 C-25.25859572 27.25901201 -22.99371654 24.6317258 -20.734375 21.953125 C-18.43103383 19.35927233 -15.96814946 16.93511969 -13.5 14.5 C-9.11511877 10.16343702 -4.99279733 5.69593145 -1 1 C-0.67 0.67 -0.34 0.34 0 0 Z " fill="#B8B4B0" transform="translate(565,295)"/>
<path d="M0 0 C4.89939942 4.08283285 7.5426434 8.7716324 9 15 C9 18.3 9 21.6 9 25 C18.57 25 28.14 25 38 25 C38 25.66 38 26.32 38 27 C37.01 27 36.02 27 35 27 C34.67 27.66 34.34 28.32 34 29 C34 28.34 34 27.68 34 27 C33.22809326 27.01571045 32.45618652 27.0314209 31.66088867 27.04760742 C28.16983338 27.10989607 24.67889491 27.14897173 21.1875 27.1875 C19.36508789 27.22520508 19.36508789 27.22520508 17.50585938 27.26367188 C15.76079102 27.27817383 15.76079102 27.27817383 13.98046875 27.29296875 C12.90692139 27.3086792 11.83337402 27.32438965 10.72729492 27.34057617 C8 27 8 27 6.1418457 25.70043945 C4.26644032 22.9075811 4.76721248 20.25902526 5 17 C5.33 16.01 5.66 15.02 6 14 C5.01 13.01 4.02 12.02 3 11 C3.33 10.01 3.66 9.02 4 8 C2.71488126 5.96868328 1.38123963 3.96722008 0 2 C0 1.34 0 0.68 0 0 Z " fill="#BBB6B2" transform="translate(518,239)"/>
<path d="M0 0 C0.66 0 1.32 0 2 0 C2.22647063 4.06170158 2.42799496 8.12427108 2.625 12.1875 C2.68945312 13.33798828 2.75390625 14.48847656 2.8203125 15.67382812 C2.89765625 17.34155273 2.89765625 17.34155273 2.9765625 19.04296875 C3.02893066 20.06414795 3.08129883 21.08532715 3.13525391 22.13745117 C3 25 3 25 1 30 C-8.9 30 -18.8 30 -29 30 C-29 29.67 -29 29.34 -29 29 C-26.60445843 28.82779162 -24.20872302 28.66223285 -21.8125 28.5 C-20.83120117 28.42845703 -20.83120117 28.42845703 -19.83007812 28.35546875 C-13.17882316 27.91415325 -6.7208371 28 0 28 C0 18.76 0 9.52 0 0 Z " fill="#C0BBB7" transform="translate(509,296)"/>
<path d="M0 0 C1.47533203 0.02707031 1.47533203 0.02707031 2.98046875 0.0546875 C5.40463783 0.10175874 7.82682059 0.16749258 10.25 0.25 C9.87109375 2.17578125 9.87109375 2.17578125 9.25 4.25 C7.3125 5.4375 7.3125 5.4375 5.25 6.25 C4.26 6.745 4.26 6.745 3.25 7.25 C2.92 5.93 2.59 4.61 2.25 3.25 C2.25 3.58 2.25 3.91 2.25 4.25 C-0.06 4.25 -2.37 4.25 -4.75 4.25 C-4.75 3.59 -4.75 2.93 -4.75 2.25 C-11.21084763 3.4366863 -14.56848956 6.24163722 -18.75 11.25 C-19.08 11.91 -19.41 12.57 -19.75 13.25 C-20.41 12.92 -21.07 12.59 -21.75 12.25 C-20.66851833 10.99839762 -19.58472078 9.74879619 -18.5 8.5 C-17.89671875 7.80390625 -17.2934375 7.1078125 -16.671875 6.390625 C-16.03765625 5.68421875 -15.4034375 4.9778125 -14.75 4.25 C-14.234375 3.5075 -13.71875 2.765 -13.1875 2 C-9.16424213 -0.88849283 -4.80719251 -0.16642744 0 0 Z " fill="#C4C0BA" transform="translate(604.75,306.75)"/>
<path d="M0 0 C12.87 0 25.74 0 39 0 C39.495 0.99 39.495 0.99 40 2 C39.01 2.99 38.02 3.98 37 5 C37 4.34 37 3.68 37 3 C36.26998779 3.00523682 35.53997559 3.01047363 34.7878418 3.01586914 C31.42107026 3.03689317 28.05431261 3.04974002 24.6875 3.0625 C22.96563477 3.07506836 22.96563477 3.07506836 21.20898438 3.08789062 C14.07868651 3.10808977 7.08655428 2.79718119 0 2 C0 1.34 0 0.68 0 0 Z " fill="#B8B4AF" transform="translate(629,280)"/>
<path d="M0 0 C2.95661207 4.09674708 4.90942686 8.78918313 7.07446289 13.33520508 C7.85370117 14.92268555 7.85370117 14.92268555 8.64868164 16.54223633 C9.37764648 18.06397461 9.37764648 18.06397461 10.12133789 19.61645508 C10.56832031 20.54522461 11.01530273 21.47399414 11.47583008 22.4309082 C12.32446289 24.83520508 12.32446289 24.83520508 11.32446289 27.83520508 C9.3180104 23.88011013 7.32040153 19.92061487 5.32446289 15.96020508 C4.75211914 14.83227539 4.17977539 13.7043457 3.59008789 12.54223633 C3.04868164 11.46586914 2.50727539 10.38950195 1.94946289 9.28051758 C1.19536133 7.7880249 1.19536133 7.7880249 0.42602539 6.26538086 C-0.67553711 3.83520508 -0.67553711 3.83520508 -0.67553711 1.83520508 C-8.92553711 1.83520508 -17.17553711 1.83520508 -25.67553711 1.83520508 C-25.67553711 1.50520508 -25.67553711 1.17520508 -25.67553711 0.83520508 C-21.740386 0.41312012 -17.80251845 0.02706254 -13.86303711 -0.35229492 C-12.74348633 -0.47282227 -11.62393555 -0.59334961 -10.47045898 -0.7175293 C-9.39731445 -0.81743164 -8.32416992 -0.91733398 -7.21850586 -1.02026367 C-5.73386841 -1.16951294 -5.73386841 -1.16951294 -4.21923828 -1.32177734 C-1.67553711 -1.16479492 -1.67553711 -1.16479492 0 0 Z " fill="#AFACA8" transform="translate(530.675537109375,478.164794921875)"/>
<path d="M0 0 C13.68290082 -0.2032114 27.33203763 0.4160716 41 1 C40.34 2.32 39.68 3.64 39 5 C38.505 4.01 38.505 4.01 38 3 C18.695 2.505 18.695 2.505 -1 2 C-0.67 1.34 -0.34 0.68 0 0 Z " fill="#F2EEE8" transform="translate(625,282)"/>
<path d="M0 0 C1.5 1.375 1.5 1.375 3 3 C3 3.66 3 4.32 3 5 C-7.23 5 -17.46 5 -28 5 C-28 4.67 -28 4.34 -28 4 C-22.23900697 2.83010551 -16.4809405 2.66795959 -10.625 2.4375 C-9.09166016 2.37272461 -9.09166016 2.37272461 -7.52734375 2.30664062 C-5.01834712 2.20112208 -2.50926057 2.09900787 0 2 C0 1.34 0 0.68 0 0 Z " fill="#EEE9E4" transform="translate(646,624)"/>
<path d="M0 0 C0.33 0 0.66 0 1 0 C0.58489112 6.27644624 -1.60650394 10.44448089 -4.875 15.75 C-5.32230469 16.50410156 -5.76960938 17.25820313 -6.23046875 18.03515625 C-8.2532837 21.39458049 -10.12596546 24.3020118 -13 27 C-11.76574159 22.91745294 -10.18406229 19.64010382 -8 16 C-7.5978125 14.6696875 -7.5978125 14.6696875 -7.1875 13.3125 C-5.46470242 8.50680149 -2.86136215 4.22113483 0 0 Z " fill="#C4BFBB" transform="translate(422,591)"/>
<path d="M0 0 C3.86180518 3.52688135 5.85267267 7.98116683 8.25 12.5625 C8.72179687 13.43841797 9.19359375 14.31433594 9.6796875 15.21679688 C10.12054687 16.05404297 10.56140625 16.89128906 11.015625 17.75390625 C11.42071289 18.52033447 11.82580078 19.2867627 12.24316406 20.07641602 C12.49291992 20.71119873 12.74267578 21.34598145 13 22 C12.67 22.66 12.34 23.32 12 24 C8 18.25 8 18.25 8 16 C7.01 15.67 6.02 15.34 5 15 C1.54040802 10.37096847 -0.75421984 5.88291472 0 0 Z " fill="#DAD7D2" transform="translate(503,399)"/>
<path d="M0 0 C4.96982235 4.14151862 7.35401499 8.74885473 9 15 C9.28873145 18.36853356 9.25803569 21.63120066 9 25 C7.68 24.67 6.36 24.34 5 24 C4.875 17.375 4.875 17.375 6 14 C5.01 13.01 4.02 12.02 3 11 C3.33 10.01 3.66 9.02 4 8 C2.71488126 5.96868328 1.38123963 3.96722008 0 2 C0 1.34 0 0.68 0 0 Z " fill="#C6C1BC" transform="translate(518,239)"/>
<path d="M0 0 C0.33 0.66 0.66 1.32 1 2 C-0.24407834 4.61756435 -1.52860365 7.09978537 -2.9375 9.625 C-4.278125 12.05875 -5.61875 14.4925 -7 17 C-12.94 16.67 -18.88 16.34 -25 16 C-25 15.67 -25 15.34 -25 15 C-23.90300781 15.020625 -22.80601562 15.04125 -21.67578125 15.0625 C-13.84447307 15.31541242 -13.84447307 15.31541242 -6.96484375 12.36328125 C-5.73479706 10.28683587 -4.85767985 8.25294851 -4 6 C-3.26090684 4.81297159 -2.49249353 3.6433637 -1.6875 2.5 C-1.130625 1.675 -0.57375 0.85 0 0 Z " fill="#C6C2BE" transform="translate(393,586)"/>
<path d="M0 0 C2.88749784 1.44374892 3.3475201 3.41368961 4.6875 6.3125 C5.14511719 7.27800781 5.60273437 8.24351562 6.07421875 9.23828125 C7 12 7 12 6 16 C0.06 15.67 -5.88 15.34 -12 15 C-12 14.67 -12 14.34 -12 14 C-4.08 13.505 -4.08 13.505 4 13 C2.35244252 7.54845781 2.35244252 7.54845781 0.875 4.8125 C0 3 0 3 0 0 Z " fill="#ACAAA6" transform="translate(644,616)"/>
<path d="M0 0 C1.5003479 0.07069702 1.5003479 0.07069702 3.03100586 0.14282227 C4.1105957 0.19116211 5.19018555 0.23950195 6.30249023 0.28930664 C7.43879883 0.34538086 8.57510742 0.40145508 9.74584961 0.45922852 C11.45611328 0.53753906 11.45611328 0.53753906 13.20092773 0.61743164 C16.02864984 0.74757785 18.85605961 0.8825573 21.68334961 1.02172852 C21.68334961 1.35172852 21.68334961 1.68172852 21.68334961 2.02172852 C10.66415746 2.7854349 -0.27136843 3.15552063 -11.31665039 3.02172852 C-11.31665039 2.69172852 -11.31665039 2.36172852 -11.31665039 2.02172852 C-9.26586914 1.79386393 -7.21508789 1.56599935 -5.16430664 1.33813477 C-2.67521856 0.91188501 -2.68925736 0.0252233 0 0 Z " fill="#CECAC5" transform="translate(467.316650390625,335.978271484375)"/>
<path d="M0 0 C7.93374838 3.96687419 13.30601587 12.13770694 17 20 C16.67 20.66 16.34 21.32 16 22 C15.49210938 21.21496094 14.98421875 20.42992187 14.4609375 19.62109375 C8.54998871 9.52200548 8.54998871 9.52200548 0 2 C0 1.34 0 0.68 0 0 Z " fill="#ACA8A4" transform="translate(532,210)"/>
<path d="M0 0 C0.99 0 1.98 0 3 0 C4.640625 2.1171875 4.640625 2.1171875 6.25 4.875 C7.06210937 6.23238281 7.06210937 6.23238281 7.890625 7.6171875 C8.25671875 8.40351563 8.6228125 9.18984375 9 10 C8.67 10.66 8.34 11.32 8 12 C6.02 9.03 4.04 6.06 2 3 C1.01 3.66 0.02 4.32 -1 5 C-2.65549531 5.38499891 -4.3222433 5.72793135 -6 6 C-4 4 -2 2 0 0 Z " fill="#BBB8B4" transform="translate(487,421)"/>
<path d="M0 0 C1.16144531 0.00902344 2.32289063 0.01804687 3.51953125 0.02734375 C4.39996094 0.03894531 5.28039062 0.05054688 6.1875 0.0625 C6.8475 1.7125 7.5075 3.3625 8.1875 5.0625 C7.5275 4.7325 6.8675 4.4025 6.1875 4.0625 C6.1875 3.4025 6.1875 2.7425 6.1875 2.0625 C5.67703125 2.23652344 5.1665625 2.41054688 4.640625 2.58984375 C1.31725935 3.23017376 -1.69500735 2.90562439 -5.0625 2.625 C-6.32578125 2.52316406 -7.5890625 2.42132813 -8.890625 2.31640625 C-10.33695312 2.19072266 -10.33695312 2.19072266 -11.8125 2.0625 C-11.8125 1.7325 -11.8125 1.4025 -11.8125 1.0625 C-7.81454108 0.10630267 -4.10446078 -0.0414592 0 0 Z " fill="#BBB9B4" transform="translate(478.8125,365.9375)"/>
<path d="M0 0 C0.66 0.33 1.32 0.66 2 1 C0.48660052 5.23751854 -2.18991209 6.80187236 -6 9 C-9.375 10.25 -9.375 10.25 -12 11 C-12 10.34 -12 9.68 -12 9 C-10.23810568 7.58061562 -8.41435143 6.23733457 -6.5625 4.9375 C-3.13481849 2.64887381 -3.13481849 2.64887381 0 0 Z " fill="#C9C6C2" transform="translate(441,456)"/>
<path d="M0 0 C0 3 0 3 -1.49609375 4.54296875 C-2.13675781 5.08566406 -2.77742187 5.62835938 -3.4375 6.1875 C-6.26570103 8.85604452 -7.49596451 10.54646846 -7.9375 14.4375 C-7.958125 15.613125 -7.97875 16.78875 -8 18 C-10.2477975 15.94766315 -11.0022242 14.99332739 -12 12 C-8.04 8.04 -4.08 4.08 0 0 Z " fill="#F2EFEA" transform="translate(536,328)"/>
<path d="M0 0 C0.66 0.33 1.32 0.66 2 1 C-8.37357631 9.44646925 -8.37357631 9.44646925 -14 13 C-13.8125 10.625 -13.8125 10.625 -13 8 C-10.9375 7.0625 -10.9375 7.0625 -8 6 C-5.24768845 4.10906003 -2.62095897 2.06815125 0 0 Z " fill="#BDBAB5" transform="translate(386,498)"/>
<path d="M0 0 C0.66 0.33 1.32 0.66 2 1 C2 1.66 2 2.32 2 3 C5.62885324 3.15149298 5.62885324 3.15149298 9 2 C9 2.99 9 3.98 9 5 C4.38 5.33 -0.24 5.66 -5 6 C-3 2 -3 2 0 0 Z " fill="#C9C5C1" transform="translate(463,474)"/>
<path d="M0 0 C0 3.59760476 -0.89512296 4.2215623 -3 7 C-3.12375 7.70125 -3.2475 8.4025 -3.375 9.125 C-3.58125 9.74375 -3.7875 10.3625 -4 11 C-6.5625 12.25 -6.5625 12.25 -9 13 C-7.95728026 10.7541421 -6.91350633 8.89021957 -5.375 6.9375 C-3.7106265 4.9882168 -3.7106265 4.9882168 -4 2 C-2.68 1.34 -1.36 0.68 0 0 Z " fill="#C3BFBB" transform="translate(581,352)"/>
<path d="M0 0 C3 1 3 1 4.203125 3.3984375 C4.54859375 4.38070312 4.8940625 5.36296875 5.25 6.375 C5.60578125 7.35210938 5.9615625 8.32921875 6.328125 9.3359375 C7 12 7 12 6 15 C4.99267601 13.06629769 3.99436712 11.12789694 3 9.1875 C2.443125 8.10855469 1.88625 7.02960937 1.3125 5.91796875 C0 3 0 3 0 0 Z " fill="#BAB5B2" transform="translate(498,556)"/>
<path d="M0 0 C1 3 1 3 -0.21484375 5.91796875 C-0.78332031 6.99691406 -1.35179687 8.07585937 -1.9375 9.1875 C-2.50339844 10.27417969 -3.06929688 11.36085938 -3.65234375 12.48046875 C-4.09707031 13.31191406 -4.54179687 14.14335937 -5 15 C-5.68359375 13.359375 -5.68359375 13.359375 -6 11 C-4.78515625 8.203125 -4.78515625 8.203125 -3.0625 5.25 C-2.49660156 4.26515625 -1.93070312 3.2803125 -1.34765625 2.265625 C-0.90292969 1.51796875 -0.45820313 0.7703125 0 0 Z " fill="#F5F2ED" transform="translate(374,497)"/>
<path d="M0 0 C0.66 0.66 1.32 1.32 2 2 C-0.97 5.3 -3.94 8.6 -7 12 C-7 8.19654123 -5.86213669 7.22298985 -3.5 4.3125 C-2.8503125 3.50425781 -2.200625 2.69601562 -1.53125 1.86328125 C-1.0259375 1.24839844 -0.520625 0.63351562 0 0 Z " fill="#F2EEE9" transform="translate(600,329)"/>
<path d="M0 0 C0.66 0.33 1.32 0.66 2 1 C2 1.66 2 2.32 2 3 C3.98 2.67 5.96 2.34 8 2 C8 2.66 8 3.32 8 4 C4.37 4 0.74 4 -3 4 C-2.34 3.67 -1.68 3.34 -1 3 C-0.67 2.01 -0.34 1.02 0 0 Z " fill="#BEB9B5" transform="translate(334,599)"/>
<path d="M0 0 C0.66 0.33 1.32 0.66 2 1 C-1.19990508 3.74277578 -4.00499382 5.6302836 -8 7 C-5.42215154 4.35247996 -3.08351902 2.05567935 0 0 Z " fill="#F3F0EB" transform="translate(398,491)"/>
<path d="M0 0 C3.98175544 2.10148204 6.35039045 4.36905358 9 8 C8.01 8 7.02 8 6 8 C4.62131719 6.37064759 3.28725907 4.70250393 2 3 C1.34 2.67 0.68 2.34 0 2 C0 1.34 0 0.68 0 0 Z " fill="#B3AFAC" transform="translate(532,210)"/>
<path d="M0 0 C3.96 0 7.92 0 12 0 C12 0.33 12 0.66 12 1 C8.04 1 4.08 1 0 1 C0 0.67 0 0.34 0 0 Z " fill="#E7E3DD" transform="translate(485,327)"/>
<path d="M0 0 C0.33 0.66 0.66 1.32 1 2 C1.66 2.33 2.32 2.66 3 3 C1.35 3.66 -0.3 4.32 -2 5 C-1.34 3.35 -0.68 1.7 0 0 Z " fill="#C6C3BE" transform="translate(669,282)"/>
<path d="M0 0 C0.66 0 1.32 0 2 0 C2.33 0.99 2.66 1.98 3 3 C1.68 3 0.36 3 -1 3 C-0.67 2.01 -0.34 1.02 0 0 Z " fill="#EAE5DF" transform="translate(469,229)"/>
<path d="M0 0 C0.66 0.33 1.32 0.66 2 1 C1.67 1.99 1.34 2.98 1 4 C1 3.34 1 2.68 1 2 C0.34 1.67 -0.32 1.34 -1 1 C-0.67 0.67 -0.34 0.34 0 0 Z " fill="#EAE6E1" transform="translate(489,380)"/>
<path d="M0 0 C0.99 0.495 0.99 0.495 2 1 C1.67 1.99 1.34 2.98 1 4 C0.67 2.68 0.34 1.36 0 0 Z " fill="#E7E3DC" transform="translate(529,354)"/>
<path d="M0 0 C0.99 1.485 0.99 1.485 2 3 C1.67 3.66 1.34 4.32 1 5 C0.67 3.35 0.34 1.7 0 0 Z " fill="#EAE5DF" transform="translate(453,272)"/>
<path d="M0 0 C0.99 0.495 0.99 0.495 2 1 C1.67 1.99 1.34 2.98 1 4 C0.67 2.68 0.34 1.36 0 0 Z " fill="#DFDBD6" transform="translate(513,592)"/>
<path d="M0 0 C0.66 1.32 1.32 2.64 2 4 C1.34 3.67 0.68 3.34 0 3 C0 2.01 0 1.02 0 0 Z " fill="#E0DCD6" transform="translate(506,577)"/>
<path d="M0 0 C0.99 0.33 1.98 0.66 3 1 C2.67 1.66 2.34 2.32 2 3 C1.34 2.01 0.68 1.02 0 0 Z " fill="#E1DDD8" transform="translate(584,569)"/>
<path d="M0 0 C0.66 0.33 1.32 0.66 2 1 C1.67 1.66 1.34 2.32 1 3 C0.34 2.34 -0.32 1.68 -1 1 C-0.67 0.67 -0.34 0.34 0 0 Z " fill="#E3DFD9" transform="translate(497,560)"/>
<path d="M0 0 C0.33 1.32 0.66 2.64 1 4 C0.34 3.34 -0.32 2.68 -1 2 C-0.67 1.34 -0.34 0.68 0 0 Z " fill="#E8E4DF" transform="translate(404,444)"/>
<path d="M0 0 C1.32 0 2.64 0 4 0 C3.67 0.66 3.34 1.32 3 2 C2.01 1.34 1.02 0.68 0 0 Z " fill="#E8E3DD" transform="translate(595,310)"/>
<path d="M0 0 C0.66 0.33 1.32 0.66 2 1 C1.01 1.66 0.02 2.32 -1 3 C-0.67 2.01 -0.34 1.02 0 0 Z " fill="#EBE7E2" transform="translate(561,296)"/>
<path d="M0 0 C0.66 0 1.32 0 2 0 C1.67 0.99 1.34 1.98 1 3 C0.67 2.01 0.34 1.02 0 0 Z " fill="#D5D2CC" transform="translate(636,596)"/>
<path d="M0 0 C0.99 0.495 0.99 0.495 2 1 C1.67 1.66 1.34 2.32 1 3 C0.67 2.01 0.34 1.02 0 0 Z " fill="#D9D5D0" transform="translate(629,581)"/>
<path d="M0 0 C4 1 4 1 4 1 Z " fill="#E2DED7" transform="translate(523,510)"/>
<path d="M0 0 C4 1 4 1 4 1 Z " fill="#E6E2DD" transform="translate(483,510)"/>
<path d="M0 0 C0.99 1.485 0.99 1.485 2 3 C1.34 3 0.68 3 0 3 C0 2.01 0 1.02 0 0 Z " fill="#E7E3DD" transform="translate(544,487)"/>
<path d="M0 0 C4 1 4 1 4 1 Z " fill="#E4E0D9" transform="translate(504,327)"/>
<path d="M0 0 C4 1 4 1 4 1 Z " fill="#E7E3DD" transform="translate(499,327)"/>
<path d="M0 0 C3 1 3 1 3 1 Z " fill="#DBD8D3" transform="translate(572,631)"/>
<path d="M0 0 C0.66 0 1.32 0 2 0 C1.67 0.66 1.34 1.32 1 2 C0.67 1.34 0.34 0.68 0 0 Z " fill="#E1DDD8" transform="translate(586,573)"/>
<path d="M0 0 C0.33 0.66 0.66 1.32 1 2 C0.34 1.67 -0.32 1.34 -1 1 C-0.67 0.67 -0.34 0.34 0 0 Z " fill="#E8E5DF" transform="translate(357,557)"/>
<path d="M0 0 C0.33 0.66 0.66 1.32 1 2 C0.34 1.67 -0.32 1.34 -1 1 C-0.67 0.67 -0.34 0.34 0 0 Z " fill="#E4E0DA" transform="translate(577,556)"/>
<path d="M0 0 C3 1 3 1 3 1 Z " fill="#E8E3DE" transform="translate(461,553)"/>
<path d="M0 0 C0.33 0.66 0.66 1.32 1 2 C0.34 1.67 -0.32 1.34 -1 1 C-0.67 0.67 -0.34 0.34 0 0 Z " fill="#E5E0DB" transform="translate(571,540)"/>
<path d="M0 0 C0.66 0.66 1.32 1.32 2 2 C1.34 2 0.68 2 0 2 C0 1.34 0 0.68 0 0 Z " fill="#E6E2DB" transform="translate(524,537)"/>
<path d="M0 0 C3 1 3 1 3 1 Z " fill="#DDD9D4" transform="translate(596,513)"/>
<path d="M0 0 C0.66 0 1.32 0 2 0 C1.67 0.66 1.34 1.32 1 2 C0.67 1.34 0.34 0.68 0 0 Z " fill="#E8E4E0" transform="translate(552,504)"/>
<path d="M0 0 C0.66 0 1.32 0 2 0 C1.67 0.66 1.34 1.32 1 2 C0.67 1.34 0.34 0.68 0 0 Z " fill="#E4DFDA" transform="translate(579,482)"/>
<path d="M0 0 C3 1 3 1 3 1 Z " fill="#E3E0D9" transform="translate(524,476)"/>
<path d="M0 0 C3 1 3 1 3 1 Z " fill="#E5E2DB" transform="translate(466,476)"/>
<path d="" fill="#E8E4DE" transform="translate(0,0)"/>
<path d="" fill="#E5E1DE" transform="translate(0,0)"/>
<path d="" fill="#E6E2DD" transform="translate(0,0)"/>
<path d="M0 0 C0.33 0.66 0.66 1.32 1 2 C0.34 1.67 -0.32 1.34 -1 1 C-0.67 0.67 -0.34 0.34 0 0 Z " fill="#E4E1DA" transform="translate(549,403)"/>
<path d="M0 0 C0.99 0.495 0.99 0.495 2 1 C1.01 1.495 1.01 1.495 0 2 C0 1.34 0 0.68 0 0 Z " fill="#E9E5E0" transform="translate(547,393)"/>
<path d="M0 0 C0.66 0.66 1.32 1.32 2 2 C1.34 2 0.68 2 0 2 C0 1.34 0 0.68 0 0 Z " fill="#E9E4DE" transform="translate(491,384)"/>
<path d="" fill="#ECE7E3" transform="translate(0,0)"/>
<path d="M0 0 C0.66 0.66 1.32 1.32 2 2 C1.34 2 0.68 2 0 2 C0 1.34 0 0.68 0 0 Z " fill="#E7E3DD" transform="translate(531,357)"/>
<path d="M0 0 C0.99 0.495 0.99 0.495 2 1 C1.01 1.495 1.01 1.495 0 2 C0 1.34 0 0.68 0 0 Z " fill="#EAE7E1" transform="translate(576,352)"/>
<path d="M0 0 C3 1 3 1 3 1 Z " fill="#EBE8E3" transform="translate(497,336)"/>
<path d="M0 0 C0.66 0 1.32 0 2 0 C1.67 0.66 1.34 1.32 1 2 C0.67 1.34 0.34 0.68 0 0 Z " fill="#E5E0DB" transform="translate(417,272)"/>
<path d="M0 0 C0.33 0.66 0.66 1.32 1 2 C0.34 1.67 -0.32 1.34 -1 1 C-0.67 0.67 -0.34 0.34 0 0 Z " fill="#E8E6E0" transform="translate(521,252)"/>
<path d="M0 0 C0.33 0.66 0.66 1.32 1 2 C0.34 1.67 -0.32 1.34 -1 1 C-0.67 0.67 -0.34 0.34 0 0 Z " fill="#E8E4DF" transform="translate(479,226)"/>
<path d="M0 0 C3 1 3 1 3 1 Z " fill="#DDD9D3" transform="translate(523,201)"/>
<path d="M0 0 C2 1 2 1 2 1 Z " fill="#D8D4D1" transform="translate(325,633)"/>
<path d="M0 0 C2 1 2 1 2 1 Z " fill="#D8D6D0" transform="translate(597,631)"/>
<path d="M0 0 C2 1 2 1 2 1 Z " fill="#D8D7D1" transform="translate(568,631)"/>
<path d="" fill="#D6D0CC" transform="translate(0,0)"/>
<path d="" fill="#DBD8D2" transform="translate(0,0)"/>
<path d="" fill="#DAD6D1" transform="translate(0,0)"/>
<path d="" fill="#DBD8D1" transform="translate(0,0)"/>
<path d="M0 0 C2 1 2 1 2 1 Z " fill="#CECBC7" transform="translate(645,609)"/>
<path d="M0 0 C2 1 2 1 2 1 Z " fill="#DCD7D3" transform="translate(520,609)"/>
<path d="" fill="#E1DCD8" transform="translate(0,0)"/>
<path d="" fill="#DEDAD4" transform="translate(0,0)"/>
<path d="" fill="#E4DEDA" transform="translate(0,0)"/>
<path d="" fill="#E3DFD9" transform="translate(0,0)"/>
<path d="" fill="#E9E5E0" transform="translate(0,0)"/>
<path d="" fill="#E8E3DD" transform="translate(0,0)"/>
<path d="" fill="#DAD7D2" transform="translate(0,0)"/>
<path d="M0 0 C2 1 2 1 2 1 Z " fill="#E7E3DD" transform="translate(404,523)"/>
<path d="M0 0 C2 1 2 1 2 1 Z " fill="#E4E1DA" transform="translate(509,520)"/>
<path d="M0 0 C2 1 2 1 2 1 Z " fill="#E1DCD6" transform="translate(542,510)"/>
<path d="M0 0 C2 1 2 1 2 1 Z " fill="#E5E0DB" transform="translate(501,510)"/>
<path d="M0 0 C2 1 2 1 2 1 Z " fill="#EFEBE5" transform="translate(440,509)"/>
<path d="" fill="#E3E1DC" transform="translate(0,0)"/>
<path d="" fill="#E2DFD9" transform="translate(0,0)"/>
<path d="M0 0 C2 1 2 1 2 1 Z " fill="#EBE6E0" transform="translate(380,495)"/>
<path d="" fill="#E7E3DD" transform="translate(0,0)"/>
<path d="" fill="#E8E4DD" transform="translate(0,0)"/>
<path d="" fill="#E3DFD9" transform="translate(0,0)"/>
<path d="M0 0 C2 1 2 1 2 1 Z " fill="#E0DAD5" transform="translate(581,481)"/>
<path d="" fill="#E6E2DC" transform="translate(0,0)"/>
<path d="M0 0 C2 1 2 1 2 1 Z " fill="#E5E2DC" transform="translate(509,476)"/>
<path d="M0 0 C2 1 2 1 2 1 Z " fill="#E6E3DD" transform="translate(500,476)"/>
<path d="M0 0 C2 1 2 1 2 1 Z " fill="#E7E3DE" transform="translate(492,476)"/>
<path d="" fill="#E8E4DE" transform="translate(0,0)"/>
<path d="" fill="#E7E2DB" transform="translate(0,0)"/>
<path d="" fill="#E7E2DD" transform="translate(0,0)"/>
<path d="" fill="#E4E1DA" transform="translate(0,0)"/>
<path d="" fill="#E9E5DF" transform="translate(0,0)"/>
<path d="" fill="#E6E2DC" transform="translate(0,0)"/>
<path d="" fill="#E7E2DD" transform="translate(0,0)"/>
<path d="" fill="#ECE7E2" transform="translate(0,0)"/>
<path d="" fill="#EAE6E0" transform="translate(0,0)"/>
<path d="M0 0 C2 1 2 1 2 1 Z " fill="#EAE5DE" transform="translate(545,398)"/>
<path d="" fill="#EBE5E1" transform="translate(0,0)"/>
<path d="M0 0 C2 1 2 1 2 1 Z " fill="#E8E2DC" transform="translate(562,373)"/>
<path d="M0 0 C2 1 2 1 2 1 Z " fill="#DFDBD5" transform="translate(605,372)"/>
<path d="" fill="#E9E6E0" transform="translate(0,0)"/>
<path d="" fill="#E8E2DC" transform="translate(0,0)"/>
<path d="M0 0 C2 1 2 1 2 1 Z " fill="#E6E3DC" transform="translate(538,366)"/>
<path d="" fill="#E3DDDA" transform="translate(0,0)"/>
<path d="" fill="#E8E4DF" transform="translate(0,0)"/>
<path d="" fill="#EAE4DE" transform="translate(0,0)"/>
<path d="" fill="#E8E4DE" transform="translate(0,0)"/>
<path d="" fill="#E9E5E0" transform="translate(0,0)"/>
<path d="M0 0 C2 1 2 1 2 1 Z " fill="#EAE6E0" transform="translate(472,326)"/>
<path d="" fill="#EBE7E1" transform="translate(0,0)"/>
<path d="" fill="#E5E1DC" transform="translate(0,0)"/>
<path d="M0 0 C2 1 2 1 2 1 Z " fill="#EAE7E0" transform="translate(466,290)"/>
<path d="" fill="#E1DED8" transform="translate(0,0)"/>
<path d="" fill="#E2DFD9" transform="translate(0,0)"/>
<path d="" fill="#E2DFDA" transform="translate(0,0)"/>
<path d="" fill="#E9E5DF" transform="translate(0,0)"/>
<path d="M0 0 C2 1 2 1 2 1 Z " fill="#E9E4DE" transform="translate(460,236)"/>
<path d="" fill="#E1DDD7" transform="translate(0,0)"/>
<path d="M0 0 C2 1 2 1 2 1 Z " fill="#E8E3DE" transform="translate(500,228)"/>
<path d="M0 0 C2 1 2 1 2 1 Z " fill="#E9E4DD" transform="translate(493,226)"/>
<path d="M0 0 C2 1 2 1 2 1 Z " fill="#DCD8D2" transform="translate(470,194)"/>
<path d="" fill="#4B4C4B" transform="translate(0,0)"/>
<path d="" fill="#5F5F5E" transform="translate(0,0)"/>
<path d="" fill="#515151" transform="translate(0,0)"/>
<path d="" fill="#D6D3CF" transform="translate(0,0)"/>
<path d="" fill="#D6D5D0" transform="translate(0,0)"/>
<path d="" fill="#D9D3CF" transform="translate(0,0)"/>
<path d="" fill="#D1CDC9" transform="translate(0,0)"/>
<path d="" fill="#D9D6D2" transform="translate(0,0)"/>
<path d="" fill="#D6D3CF" transform="translate(0,0)"/>
<path d="" fill="#C9C7C3" transform="translate(0,0)"/>
<path d="" fill="#CFCCC8" transform="translate(0,0)"/>
<path d="" fill="#CFCCC8" transform="translate(0,0)"/>
<path d="" fill="#D1CBC8" transform="translate(0,0)"/>
<path d="" fill="#DCDAD4" transform="translate(0,0)"/>
<path d="" fill="#E0DDD7" transform="translate(0,0)"/>
<path d="" fill="#DFDBD6" transform="translate(0,0)"/>
<path d="" fill="#E4E0DC" transform="translate(0,0)"/>
<path d="" fill="#E5E1DA" transform="translate(0,0)"/>
<path d="" fill="#D3D0CA" transform="translate(0,0)"/>
<path d="" fill="#E4DFDA" transform="translate(0,0)"/>
<path d="" fill="#DEDBD5" transform="translate(0,0)"/>
<path d="" fill="#DDDAD5" transform="translate(0,0)"/>
<path d="" fill="#E2DEDB" transform="translate(0,0)"/>
<path d="" fill="#E5DEDA" transform="translate(0,0)"/>
<path d="" fill="#E7E3DE" transform="translate(0,0)"/>
<path d="" fill="#D9D5D0" transform="translate(0,0)"/>
<path d="" fill="#E1DCD7" transform="translate(0,0)"/>
<path d="" fill="#E3E2DC" transform="translate(0,0)"/>
<path d="" fill="#DED8D4" transform="translate(0,0)"/>
<path d="" fill="#E3DED8" transform="translate(0,0)"/>
<path d="" fill="#E3E0DA" transform="translate(0,0)"/>
<path d="" fill="#E2DED9" transform="translate(0,0)"/>
<path d="" fill="#E1DED9" transform="translate(0,0)"/>
<path d="" fill="#E1DBD6" transform="translate(0,0)"/>
<path d="" fill="#E5E0DA" transform="translate(0,0)"/>
<path d="" fill="#E3DFD9" transform="translate(0,0)"/>
<path d="" fill="#E3DFD7" transform="translate(0,0)"/>
<path d="" fill="#E3DDDA" transform="translate(0,0)"/>
<path d="" fill="#DBD9D2" transform="translate(0,0)"/>
<path d="" fill="#E4E0DC" transform="translate(0,0)"/>
<path d="" fill="#DFDCD6" transform="translate(0,0)"/>
<path d="" fill="#E4E1DB" transform="translate(0,0)"/>
<path d="" fill="#DED9D5" transform="translate(0,0)"/>
<path d="" fill="#DCDBD6" transform="translate(0,0)"/>
<path d="" fill="#E0DBD7" transform="translate(0,0)"/>
<path d="" fill="#E1DCD5" transform="translate(0,0)"/>
<path d="" fill="#E1DDD6" transform="translate(0,0)"/>
<path d="" fill="#E1DFDA" transform="translate(0,0)"/>
<path d="" fill="#E2E0D9" transform="translate(0,0)"/>
<path d="" fill="#E4E1DB" transform="translate(0,0)"/>
<path d="" fill="#E4E0DA" transform="translate(0,0)"/>
<path d="" fill="#E6E4DF" transform="translate(0,0)"/>
<path d="" fill="#DDD9D4" transform="translate(0,0)"/>
<path d="" fill="#E1DDD8" transform="translate(0,0)"/>
<path d="" fill="#E3E0DA" transform="translate(0,0)"/>
<path d="" fill="#DCD8D4" transform="translate(0,0)"/>
<path d="" fill="#E4DFDB" transform="translate(0,0)"/>
<path d="" fill="#DDD9D4" transform="translate(0,0)"/>
<path d="" fill="#E5E0DB" transform="translate(0,0)"/>
<path d="" fill="#E4DFDC" transform="translate(0,0)"/>
<path d="" fill="#DDD9D3" transform="translate(0,0)"/>
<path d="" fill="#E4DFD9" transform="translate(0,0)"/>
<path d="" fill="#E5E2DB" transform="translate(0,0)"/>
<path d="" fill="#E3E1DA" transform="translate(0,0)"/>
<path d="" fill="#E7E3DD" transform="translate(0,0)"/>
<path d="" fill="#E4E1DB" transform="translate(0,0)"/>
<path d="" fill="#E1DDD7" transform="translate(0,0)"/>
<path d="" fill="#E2E0DB" transform="translate(0,0)"/>
<path d="" fill="#E6E2DD" transform="translate(0,0)"/>
<path d="" fill="#E5E2DC" transform="translate(0,0)"/>
<path d="" fill="#E6E0DA" transform="translate(0,0)"/>
<path d="" fill="#E2DFDA" transform="translate(0,0)"/>
<path d="" fill="#E8E5DE" transform="translate(0,0)"/>
<path d="" fill="#E5E0DB" transform="translate(0,0)"/>
<path d="" fill="#E3E0DA" transform="translate(0,0)"/>
<path d="" fill="#E2DFD9" transform="translate(0,0)"/>
<path d="" fill="#EAE4DF" transform="translate(0,0)"/>
<path d="" fill="#E5E0DB" transform="translate(0,0)"/>
<path d="" fill="#E9E5E0" transform="translate(0,0)"/>
<path d="" fill="#E3DFDA" transform="translate(0,0)"/>
<path d="" fill="#E6E2DD" transform="translate(0,0)"/>
<path d="" fill="#E7E1DB" transform="translate(0,0)"/>
<path d="" fill="#E1DCD7" transform="translate(0,0)"/>
<path d="" fill="#E7E2DD" transform="translate(0,0)"/>
<path d="" fill="#D9D6D0" transform="translate(0,0)"/>
<path d="" fill="#E6E2DC" transform="translate(0,0)"/>
<path d="" fill="#E6E1DA" transform="translate(0,0)"/>
<path d="" fill="#E6E4DD" transform="translate(0,0)"/>
<path d="" fill="#E3DFDA" transform="translate(0,0)"/>
<path d="" fill="#E7E3DD" transform="translate(0,0)"/>
<path d="" fill="#E4E0DA" transform="translate(0,0)"/>
<path d="" fill="#E3DED9" transform="translate(0,0)"/>
<path d="" fill="#E2DFDB" transform="translate(0,0)"/>
<path d="" fill="#E6E3DD" transform="translate(0,0)"/>
<path d="" fill="#E3DFDA" transform="translate(0,0)"/>
<path d="" fill="#E9E7E0" transform="translate(0,0)"/>
<path d="" fill="#E2DED8" transform="translate(0,0)"/>
<path d="" fill="#E3DEDA" transform="translate(0,0)"/>
<path d="" fill="#E9E3E0" transform="translate(0,0)"/>
<path d="" fill="#DCD7D2" transform="translate(0,0)"/>
<path d="" fill="#E8E4DC" transform="translate(0,0)"/>
<path d="" fill="#DAD7D4" transform="translate(0,0)"/>
<path d="" fill="#DCD8D3" transform="translate(0,0)"/>
<path d="" fill="#E2DED8" transform="translate(0,0)"/>
<path d="" fill="#E7E1DC" transform="translate(0,0)"/>
<path d="" fill="#E5E1DB" transform="translate(0,0)"/>
<path d="" fill="#EBE8E3" transform="translate(0,0)"/>
<path d="" fill="#E5E0DB" transform="translate(0,0)"/>
<path d="" fill="#E8E3DD" transform="translate(0,0)"/>
<path d="" fill="#EDE9E3" transform="translate(0,0)"/>
<path d="" fill="#E6E4DD" transform="translate(0,0)"/>
<path d="" fill="#E5DFD9" transform="translate(0,0)"/>
<path d="" fill="#E7E4DE" transform="translate(0,0)"/>
<path d="" fill="#E5E1DD" transform="translate(0,0)"/>
<path d="" fill="#E3DED8" transform="translate(0,0)"/>
<path d="" fill="#E4E0DB" transform="translate(0,0)"/>
<path d="" fill="#EAE6E1" transform="translate(0,0)"/>
<path d="" fill="#E9E5DF" transform="translate(0,0)"/>
<path d="" fill="#E7E4DE" transform="translate(0,0)"/>
<path d="" fill="#E0DDDA" transform="translate(0,0)"/>
<path d="" fill="#E1DCD8" transform="translate(0,0)"/>
<path d="" fill="#E2E0DC" transform="translate(0,0)"/>
<path d="" fill="#E4E3DE" transform="translate(0,0)"/>
<path d="" fill="#E5E1DA" transform="translate(0,0)"/>
<path d="" fill="#E4E0D9" transform="translate(0,0)"/>
<path d="" fill="#E7E2DB" transform="translate(0,0)"/>
<path d="" fill="#E5E1DA" transform="translate(0,0)"/>
<path d="" fill="#EAE6DE" transform="translate(0,0)"/>
<path d="" fill="#E9E6DF" transform="translate(0,0)"/>
<path d="" fill="#E7E5DF" transform="translate(0,0)"/>
<path d="" fill="#EAE6E0" transform="translate(0,0)"/>
<path d="" fill="#E8E6E0" transform="translate(0,0)"/>
<path d="" fill="#EBE8E2" transform="translate(0,0)"/>
<path d="" fill="#E8E4DC" transform="translate(0,0)"/>
<path d="" fill="#E6E3DE" transform="translate(0,0)"/>
<path d="" fill="#E1DEDB" transform="translate(0,0)"/>
<path d="" fill="#EFEBE3" transform="translate(0,0)"/>
<path d="" fill="#DDDAD5" transform="translate(0,0)"/>
<path d="" fill="#EAE7E0" transform="translate(0,0)"/>
<path d="" fill="#E8E2DC" transform="translate(0,0)"/>
<path d="" fill="#E1DDD8" transform="translate(0,0)"/>
<path d="" fill="#E7E3DE" transform="translate(0,0)"/>
<path d="" fill="#E7E3DB" transform="translate(0,0)"/>
<path d="" fill="#E2DFDB" transform="translate(0,0)"/>
<path d="" fill="#EBE8E4" transform="translate(0,0)"/>
<path d="" fill="#EAE7E3" transform="translate(0,0)"/>
<path d="" fill="#E8E4DD" transform="translate(0,0)"/>
<path d="" fill="#E7E3DF" transform="translate(0,0)"/>
<path d="" fill="#E3DEDB" transform="translate(0,0)"/>
<path d="" fill="#E0DDD7" transform="translate(0,0)"/>
<path d="" fill="#E0DED6" transform="translate(0,0)"/>
<path d="" fill="#E3DFDB" transform="translate(0,0)"/>
<path d="" fill="#E8E5DE" transform="translate(0,0)"/>
<path d="" fill="#E9E5E0" transform="translate(0,0)"/>
<path d="" fill="#E4E1DF" transform="translate(0,0)"/>
<path d="" fill="#E9E3DC" transform="translate(0,0)"/>
<path d="" fill="#E5E1DA" transform="translate(0,0)"/>
<path d="" fill="#E5E0DB" transform="translate(0,0)"/>
<path d="" fill="#E8E4E0" transform="translate(0,0)"/>
<path d="" fill="#EAE4E0" transform="translate(0,0)"/>
<path d="" fill="#E8E3DF" transform="translate(0,0)"/>
<path d="" fill="#E9E4DE" transform="translate(0,0)"/>
<path d="" fill="#EBE7E0" transform="translate(0,0)"/>
<path d="" fill="#E3DEDA" transform="translate(0,0)"/>
<path d="" fill="#E9E2DD" transform="translate(0,0)"/>
<path d="" fill="#E9E2DD" transform="translate(0,0)"/>
<path d="" fill="#E8E5DE" transform="translate(0,0)"/>
<path d="" fill="#E8E4DE" transform="translate(0,0)"/>
<path d="" fill="#E7E2DD" transform="translate(0,0)"/>
<path d="" fill="#E8E4DF" transform="translate(0,0)"/>
<path d="" fill="#EAE4DF" transform="translate(0,0)"/>
<path d="" fill="#ECE8E2" transform="translate(0,0)"/>
<path d="" fill="#E5E3DE" transform="translate(0,0)"/>
<path d="" fill="#ECE7E3" transform="translate(0,0)"/>
<path d="" fill="#E7E1DC" transform="translate(0,0)"/>
<path d="" fill="#EAE6E1" transform="translate(0,0)"/>
<path d="" fill="#E2DFDC" transform="translate(0,0)"/>
<path d="" fill="#E8E3DD" transform="translate(0,0)"/>
<path d="" fill="#E9E3DE" transform="translate(0,0)"/>
<path d="" fill="#EBE6E3" transform="translate(0,0)"/>
<path d="" fill="#ECE6E2" transform="translate(0,0)"/>
<path d="" fill="#EFEAE3" transform="translate(0,0)"/>
<path d="" fill="#E8E3DD" transform="translate(0,0)"/>
<path d="" fill="#E8E4DF" transform="translate(0,0)"/>
<path d="" fill="#EBE8E2" transform="translate(0,0)"/>
<path d="" fill="#EAE5E1" transform="translate(0,0)"/>
<path d="" fill="#E9E4DE" transform="translate(0,0)"/>
<path d="" fill="#E3E1DC" transform="translate(0,0)"/>
<path d="" fill="#E2DFDA" transform="translate(0,0)"/>
<path d="" fill="#E8E4DE" transform="translate(0,0)"/>
<path d="" fill="#EBE7E0" transform="translate(0,0)"/>
<path d="" fill="#EDE9E2" transform="translate(0,0)"/>
<path d="" fill="#EBE7E1" transform="translate(0,0)"/>
<path d="" fill="#EAE6E0" transform="translate(0,0)"/>
<path d="" fill="#E3E0DA" transform="translate(0,0)"/>
<path d="" fill="#E8E4DD" transform="translate(0,0)"/>
<path d="" fill="#EAE6E1" transform="translate(0,0)"/>
<path d="" fill="#EDE9E3" transform="translate(0,0)"/>
<path d="" fill="#E8E4DF" transform="translate(0,0)"/>
<path d="" fill="#E4DFDB" transform="translate(0,0)"/>
<path d="" fill="#EEECE4" transform="translate(0,0)"/>
<path d="" fill="#E9E7E1" transform="translate(0,0)"/>
<path d="" fill="#E9E6E0" transform="translate(0,0)"/>
<path d="" fill="#EDE8E2" transform="translate(0,0)"/>
<path d="" fill="#E8E5DE" transform="translate(0,0)"/>
<path d="" fill="#EAE7E0" transform="translate(0,0)"/>
<path d="" fill="#E9E5E0" transform="translate(0,0)"/>
<path d="" fill="#E5E0DC" transform="translate(0,0)"/>
<path d="" fill="#E3E0D9" transform="translate(0,0)"/>
<path d="" fill="#E6E2DD" transform="translate(0,0)"/>
<path d="" fill="#E6E1DE" transform="translate(0,0)"/>
<path d="" fill="#E7E5DE" transform="translate(0,0)"/>
<path d="" fill="#E8E4DD" transform="translate(0,0)"/>
<path d="" fill="#E8E4DF" transform="translate(0,0)"/>
<path d="" fill="#E8E2DC" transform="translate(0,0)"/>
<path d="" fill="#F0ECE6" transform="translate(0,0)"/>
<path d="" fill="#E8E4DE" transform="translate(0,0)"/>
<path d="" fill="#E6E1DB" transform="translate(0,0)"/>
<path d="" fill="#EBE6DF" transform="translate(0,0)"/>
<path d="" fill="#E9E5DE" transform="translate(0,0)"/>
<path d="" fill="#EAE5DE" transform="translate(0,0)"/>
<path d="" fill="#E6E0DD" transform="translate(0,0)"/>
<path d="" fill="#E7E3DE" transform="translate(0,0)"/>
<path d="" fill="#EAE5DE" transform="translate(0,0)"/>
<path d="" fill="#E3E0DA" transform="translate(0,0)"/>
<path d="" fill="#E8E2DD" transform="translate(0,0)"/>
<path d="" fill="#EAE5DE" transform="translate(0,0)"/>
<path d="" fill="#E8E5DE" transform="translate(0,0)"/>
<path d="" fill="#E6E3DD" transform="translate(0,0)"/>
<path d="" fill="#E8E4DE" transform="translate(0,0)"/>
<path d="" fill="#E9E2DF" transform="translate(0,0)"/>
<path d="" fill="#DFD8D3" transform="translate(0,0)"/>
<path d="" fill="#E7E4DE" transform="translate(0,0)"/>
<path d="" fill="#EAE6E0" transform="translate(0,0)"/>
<path d="" fill="#E9E6E0" transform="translate(0,0)"/>
<path d="" fill="#D6D1CC" transform="translate(0,0)"/>
<path d="" fill="#E7E3DC" transform="translate(0,0)"/>
<path d="" fill="#E7E4DF" transform="translate(0,0)"/>
<path d="" fill="#ECE9E3" transform="translate(0,0)"/>
<path d="" fill="#EAE7DF" transform="translate(0,0)"/>
<path d="" fill="#E7E3DC" transform="translate(0,0)"/>
<path d="" fill="#EAE8E1" transform="translate(0,0)"/>
<path d="" fill="#E3DED8" transform="translate(0,0)"/>
<path d="" fill="#E7E3DE" transform="translate(0,0)"/>
<path d="" fill="#E6E1DC" transform="translate(0,0)"/>
<path d="" fill="#EAE4DC" transform="translate(0,0)"/>
<path d="" fill="#E8E4DE" transform="translate(0,0)"/>
<path d="" fill="#EEE9E3" transform="translate(0,0)"/>
<path d="" fill="#EBE5DF" transform="translate(0,0)"/>
<path d="" fill="#E1DED8" transform="translate(0,0)"/>
<path d="" fill="#EBE5E0" transform="translate(0,0)"/>
<path d="" fill="#E9E3DE" transform="translate(0,0)"/>
<path d="" fill="#E9E2DD" transform="translate(0,0)"/>
<path d="" fill="#E4DFD9" transform="translate(0,0)"/>
<path d="" fill="#E7E4E0" transform="translate(0,0)"/>
<path d="" fill="#E2DAD6" transform="translate(0,0)"/>
<path d="" fill="#EAE4DD" transform="translate(0,0)"/>
<path d="" fill="#E8E5DE" transform="translate(0,0)"/>
<path d="" fill="#DCD8D4" transform="translate(0,0)"/>
<path d="" fill="#EAE7E2" transform="translate(0,0)"/>
<path d="" fill="#E8E4DF" transform="translate(0,0)"/>
<path d="" fill="#ECE8E3" transform="translate(0,0)"/>
<path d="" fill="#EDE9E3" transform="translate(0,0)"/>
<path d="" fill="#DDDAD2" transform="translate(0,0)"/>
<path d="" fill="#DFDCD4" transform="translate(0,0)"/>
<path d="" fill="#E4E0DC" transform="translate(0,0)"/>
<path d="" fill="#E5E2DE" transform="translate(0,0)"/>
<path d="" fill="#E1DDD7" transform="translate(0,0)"/>
<path d="" fill="#E5E1DC" transform="translate(0,0)"/>
<path d="" fill="#E0DED7" transform="translate(0,0)"/>
<path d="" fill="#EBE6E2" transform="translate(0,0)"/>
<path d="" fill="#E7E3DE" transform="translate(0,0)"/>
<path d="" fill="#EBE6E1" transform="translate(0,0)"/>
<path d="" fill="#EAE6E0" transform="translate(0,0)"/>
<path d="" fill="#EAE5DF" transform="translate(0,0)"/>
<path d="" fill="#EBE8E0" transform="translate(0,0)"/>
<path d="" fill="#EAE6E0" transform="translate(0,0)"/>
<path d="" fill="#E3DFDA" transform="translate(0,0)"/>
<path d="" fill="#E9E5DE" transform="translate(0,0)"/>
<path d="" fill="#DFDAD5" transform="translate(0,0)"/>
<path d="" fill="#E7E3DD" transform="translate(0,0)"/>
<path d="" fill="#E8E2DC" transform="translate(0,0)"/>
<path d="" fill="#E8E0DC" transform="translate(0,0)"/>
<path d="" fill="#DAD6D1" transform="translate(0,0)"/>
<path d="" fill="#E5E1DB" transform="translate(0,0)"/>
<path d="" fill="#E4E0DB" transform="translate(0,0)"/>
<path d="" fill="#DDD8D2" transform="translate(0,0)"/>
<path d="" fill="#E6E3DE" transform="translate(0,0)"/>
<path d="" fill="#E9E5DE" transform="translate(0,0)"/>
<path d="" fill="#DAD6D1" transform="translate(0,0)"/>
<path d="" fill="#E8E3DD" transform="translate(0,0)"/>
<path d="" fill="#DBD6D1" transform="translate(0,0)"/>
<path d="" fill="#EEEBE5" transform="translate(0,0)"/>
<path d="" fill="#EBE7E0" transform="translate(0,0)"/>
<path d="" fill="#EBE8E2" transform="translate(0,0)"/>
<path d="" fill="#EAE6E1" transform="translate(0,0)"/>
<path d="" fill="#EBE7E0" transform="translate(0,0)"/>
<path d="" fill="#EAE6E2" transform="translate(0,0)"/>
<path d="" fill="#EAE5DE" transform="translate(0,0)"/>
<path d="" fill="#E4DDD7" transform="translate(0,0)"/>
<path d="" fill="#E9E4E0" transform="translate(0,0)"/>
<path d="" fill="#ECE9E3" transform="translate(0,0)"/>
<path d="" fill="#EAE6E0" transform="translate(0,0)"/>
<path d="" fill="#EBE6E1" transform="translate(0,0)"/>
<path d="" fill="#E9E4DF" transform="translate(0,0)"/>
<path d="" fill="#EAE7E0" transform="translate(0,0)"/>
<path d="" fill="#E9E5E2" transform="translate(0,0)"/>
<path d="" fill="#EAE6E0" transform="translate(0,0)"/>
<path d="" fill="#EAE5E1" transform="translate(0,0)"/>
<path d="" fill="#E8E3DD" transform="translate(0,0)"/>
<path d="" fill="#E9E7E0" transform="translate(0,0)"/>
<path d="" fill="#EBE7DF" transform="translate(0,0)"/>
<path d="" fill="#E8E4DE" transform="translate(0,0)"/>
<path d="" fill="#ECE8E0" transform="translate(0,0)"/>
<path d="" fill="#E8E3DE" transform="translate(0,0)"/>
<path d="" fill="#ECE8E4" transform="translate(0,0)"/>
<path d="" fill="#E9E5DF" transform="translate(0,0)"/>
<path d="" fill="#E9E4E1" transform="translate(0,0)"/>
<path d="" fill="#EBE6DE" transform="translate(0,0)"/>
<path d="" fill="#D7D4CE" transform="translate(0,0)"/>
<path d="" fill="#EAE5E0" transform="translate(0,0)"/>
<path d="" fill="#EAE6E2" transform="translate(0,0)"/>
<path d="" fill="#E6E1DC" transform="translate(0,0)"/>
<path d="" fill="#D6D4CD" transform="translate(0,0)"/>
<path d="" fill="#D6D3CD" transform="translate(0,0)"/>
<path d="" fill="#D7D4CF" transform="translate(0,0)"/>
<path d="" fill="#E4E1DB" transform="translate(0,0)"/>
<path d="" fill="#D3CECA" transform="translate(0,0)"/>
<path d="" fill="#EEE9E5" transform="translate(0,0)"/>
<path d="" fill="#CDC9C5" transform="translate(0,0)"/>
<path d="" fill="#E4E1DD" transform="translate(0,0)"/>
<path d="" fill="#C5C3BD" transform="translate(0,0)"/>
<path d="" fill="#EBE5E0" transform="translate(0,0)"/>
<path d="" fill="#E4E0D9" transform="translate(0,0)"/>
<path d="" fill="#E7E0DC" transform="translate(0,0)"/>
<path d="" fill="#EAE4DF" transform="translate(0,0)"/>
<path d="" fill="#E2DEDA" transform="translate(0,0)"/>
<path d="" fill="#E2DFD7" transform="translate(0,0)"/>
<path d="" fill="#E2DCD9" transform="translate(0,0)"/>
<path d="" fill="#E8E4DD" transform="translate(0,0)"/>
<path d="" fill="#E4E0DA" transform="translate(0,0)"/>
<path d="" fill="#EBE6E0" transform="translate(0,0)"/>
<path d="" fill="#E6E2DD" transform="translate(0,0)"/>
<path d="" fill="#E4E3DD" transform="translate(0,0)"/>
<path d="" fill="#E5E2DC" transform="translate(0,0)"/>
<path d="" fill="#E9E4DF" transform="translate(0,0)"/>
<path d="" fill="#E2DFD8" transform="translate(0,0)"/>
<path d="" fill="#E1DFD9" transform="translate(0,0)"/>
<path d="" fill="#E2DFD8" transform="translate(0,0)"/>
<path d="" fill="#E2DDD8" transform="translate(0,0)"/>
<path d="" fill="#E2DED8" transform="translate(0,0)"/>
<path d="" fill="#EAE5DD" transform="translate(0,0)"/>
<path d="" fill="#E9E4DF" transform="translate(0,0)"/>
<path d="" fill="#EAE7DF" transform="translate(0,0)"/>
<path d="" fill="#EBE7E1" transform="translate(0,0)"/>
<path d="" fill="#E9E3E0" transform="translate(0,0)"/>
<path d="" fill="#E7E4E1" transform="translate(0,0)"/>
<path d="" fill="#DEDAD5" transform="translate(0,0)"/>
<path d="" fill="#E8E4DE" transform="translate(0,0)"/>
<path d="" fill="#E4E0DB" transform="translate(0,0)"/>
<path d="" fill="#EBE6E1" transform="translate(0,0)"/>
<path d="" fill="#E8E6E0" transform="translate(0,0)"/>
<path d="" fill="#DDDBD5" transform="translate(0,0)"/>
<path d="" fill="#E8E3DE" transform="translate(0,0)"/>
<path d="" fill="#DDDBD5" transform="translate(0,0)"/>
<path d="" fill="#E8E5DE" transform="translate(0,0)"/>
<path d="" fill="#E2DFD9" transform="translate(0,0)"/>
<path d="" fill="#EAE6E1" transform="translate(0,0)"/>
<path d="" fill="#E3E0D8" transform="translate(0,0)"/>
<path d="" fill="#E0DED8" transform="translate(0,0)"/>
<path d="" fill="#E0DFD9" transform="translate(0,0)"/>
<path d="" fill="#DDD9D5" transform="translate(0,0)"/>
<path d="" fill="#DED9D5" transform="translate(0,0)"/>
<path d="" fill="#E1DED6" transform="translate(0,0)"/>
<path d="" fill="#DCD8D1" transform="translate(0,0)"/>
<path d="" fill="#DEDAD5" transform="translate(0,0)"/>
<path d="" fill="#DCD8D2" transform="translate(0,0)"/>
<path d="" fill="#DCD9D3" transform="translate(0,0)"/>
<path d="" fill="#DCD7D1" transform="translate(0,0)"/>
<path d="" fill="#DDDAD6" transform="translate(0,0)"/>
</svg>
